<svg xmlns="http://www.w3.org/2000/svg" xmlns:xlink="http://www.w3.org/1999/xlink" width="1500" zoomAndPan="magnify" viewBox="0 0 1125 239.999995" height="320" preserveAspectRatio="xMidYMid meet" version="1.0"><defs><clipPath id="ebdc2a30ce"><path d="M 42.324219 46.730469 L 200.710938 46.730469 L 200.710938 190 L 42.324219 190 Z M 42.324219 46.730469 " clip-rule="nonzero"/></clipPath><clipPath id="09b3811334"><path d="M 122.289062 114.738281 L 171.292969 46.730469 L 200.304688 46.730469 L 200.304688 190 L 171.488281 190 L 171.488281 94.160156 L 121.777344 158.679688 L 71.136719 93.574219 L 71.136719 190 L 42.324219 190 L 42.324219 46.730469 L 73.679688 46.730469 Z M 122.289062 114.738281 " clip-rule="nonzero"/></clipPath><clipPath id="217df51900"><path d="M 0.324219 0.730469 L 158.398438 0.730469 L 158.398438 144 L 0.324219 144 Z M 0.324219 0.730469 " clip-rule="nonzero"/></clipPath><clipPath id="d02b03e6c2"><path d="M 80.289062 68.738281 L 129.292969 0.730469 L 158.304688 0.730469 L 158.304688 144 L 129.488281 144 L 129.488281 48.160156 L 79.777344 112.679688 L 29.136719 47.574219 L 29.136719 144 L 0.324219 144 L 0.324219 0.730469 L 31.679688 0.730469 Z M 80.289062 68.738281 " clip-rule="nonzero"/></clipPath><clipPath id="59162feeb1"><rect x="0" width="159" y="0" height="144"/></clipPath><clipPath id="6266541676"><path d="M 215.492188 46.539062 L 246 46.539062 L 246 126 L 215.492188 126 Z M 215.492188 46.539062 " clip-rule="nonzero"/></clipPath><clipPath id="9351b0a8ff"><path d="M 215.90625 92.417969 C 215.90625 92.417969 221.816406 111.625 231.558594 125.921875 C 230.726562 110.875 238.828125 98.171875 245.769531 92.425781 C 245.515625 69.394531 245.292969 46.726562 245.292969 46.726562 L 215.679688 46.726562 Z M 215.90625 92.417969 " clip-rule="nonzero"/></clipPath><clipPath id="4152da19ee"><path d="M 0.519531 0.558594 L 31 0.558594 L 31 80 L 0.519531 80 Z M 0.519531 0.558594 " clip-rule="nonzero"/></clipPath><clipPath id="8b4763443e"><path d="M 0.90625 46.417969 C 0.90625 46.417969 6.816406 65.625 16.558594 79.921875 C 15.726562 64.875 23.828125 52.171875 30.769531 46.425781 C 30.515625 23.394531 30.292969 0.726562 30.292969 0.726562 L 0.679688 0.726562 Z M 0.90625 46.417969 " clip-rule="nonzero"/></clipPath><clipPath id="2f06b3d7bf"><rect x="0" width="31" y="0" height="80"/></clipPath><clipPath id="86877c2363"><path d="M 308 46.539062 L 338.578125 46.539062 L 338.578125 118.761719 L 308 118.761719 Z M 308 46.539062 " clip-rule="nonzero"/></clipPath><clipPath id="cea8a08a63"><path d="M 315.964844 105.632812 C 328.984375 110.824219 338.328125 118.636719 338.328125 118.636719 L 338.390625 46.726562 L 308.007812 46.726562 C 308.007812 46.726562 308.015625 77.941406 308.015625 94.683594 C 310.054688 96.386719 314.621094 102.46875 315.964844 105.640625 " clip-rule="nonzero"/></clipPath><clipPath id="dfd87d6f3e"><path d="M 0 0.558594 L 30.398438 0.558594 L 30.398438 72.761719 L 0 72.761719 Z M 0 0.558594 " clip-rule="nonzero"/></clipPath><clipPath id="95c42d01c3"><path d="M 7.964844 59.632812 C 20.984375 64.824219 30.328125 72.636719 30.328125 72.636719 L 30.390625 0.726562 L 0.0078125 0.726562 C 0.0078125 0.726562 0.015625 31.941406 0.015625 48.683594 C 2.054688 50.386719 6.621094 56.46875 7.964844 59.640625 " clip-rule="nonzero"/></clipPath><clipPath id="8c568d2c6e"><rect x="0" width="31" y="0" height="73"/></clipPath><clipPath id="5feb36d6ef"><path d="M 247.027344 98.925781 L 305 98.925781 L 305 156.910156 L 247.027344 156.910156 Z M 247.027344 98.925781 " clip-rule="nonzero"/></clipPath><clipPath id="d8b250f4d8"><path d="M 304.855469 125.1875 C 302.105469 124.59375 298.457031 124.339844 295.839844 123.484375 C 295.453125 123.355469 295.21875 123.25 294.984375 122.890625 L 302.449219 116.628906 C 302.261719 116.394531 301.660156 116.492188 301.367188 116.515625 C 298.886719 116.703125 295.773438 117.46875 293.410156 117.484375 C 293.019531 117.484375 292.820312 117.445312 292.585938 117.117188 L 297.632812 109.046875 C 297.28125 108.699219 289.054688 113.199219 288.484375 112.652344 L 290.890625 103.023438 L 283.546875 109.519531 C 283.203125 109.292969 283.210938 109.0625 283.171875 108.691406 C 282.972656 106.707031 282.941406 104.664062 282.941406 102.664062 L 282.460938 99.40625 C 281.074219 101.90625 279.695312 105.125 278.082031 107.433594 C 277.910156 107.679688 277.632812 108.152344 277.277344 108.070312 L 273.785156 98.929688 L 273.3125 99.296875 L 271.257812 108.566406 L 264.992188 101.101562 C 264.761719 101.289062 264.859375 101.890625 264.882812 102.183594 C 265.070312 104.65625 265.839844 107.785156 265.855469 110.148438 C 265.855469 110.433594 265.765625 110.921875 265.480469 110.980469 C 264.867188 111.101562 257.539062 105.550781 257.179688 105.925781 L 261.035156 114.707031 C 260.742188 115.105469 260.71875 115.046875 260.296875 114.96875 C 257.679688 114.492188 254.824219 113.289062 252.175781 112.726562 C 251.964844 112.683594 251.472656 112.53125 251.394531 112.789062 L 257.433594 119.515625 L 257.660156 120.371094 L 247.78125 120.859375 C 250.015625 122.769531 253.203125 123.820312 255.566406 125.46875 C 255.8125 125.644531 256.285156 125.921875 256.210938 126.273438 L 247.0625 130.007812 L 256.691406 131.9375 C 256.8125 132.65625 256.1875 133.0625 255.730469 133.503906 C 253.804688 135.355469 251.15625 136.886719 249.230469 138.796875 L 259.097656 137.71875 L 258.972656 138.671875 L 254.042969 146.386719 L 263.066406 142.53125 C 263.515625 142.832031 263.304688 142.886719 263.269531 143.199219 C 262.9375 146.058594 261.175781 149.199219 261.140625 152.164062 C 263.1875 150.617188 264.964844 148.464844 266.929688 146.875 C 267.214844 146.652344 268.445312 145.617188 268.730469 145.90625 L 269.214844 155.539062 L 273.910156 147.589844 L 274.734375 147.355469 L 278.359375 156.5 L 280.292969 146.867188 L 281.125 147.117188 L 287.035156 154.332031 C 286.945312 151.5625 286.144531 148.511719 286.0625 145.789062 C 286.046875 145.234375 285.933594 144.589844 286.4375 144.21875 L 294.746094 149.515625 L 290.898438 140.367188 L 300.527344 142.773438 L 294.027344 135.191406 C 294.242188 134.84375 294.492188 134.851562 294.859375 134.816406 C 296.875 134.597656 299.089844 134.613281 301.128906 134.582031 L 304.144531 134.109375 L 295.480469 129.167969 Z M 304.855469 125.1875 " clip-rule="nonzero"/></clipPath><clipPath id="fd2dfcc1d9"><path d="M 0.0273438 0.925781 L 58 0.925781 L 58 58.71875 L 0.0273438 58.71875 Z M 0.0273438 0.925781 " clip-rule="nonzero"/></clipPath><clipPath id="36a92a2ff6"><path d="M 57.855469 27.1875 C 55.105469 26.59375 51.457031 26.339844 48.839844 25.484375 C 48.453125 25.355469 48.21875 25.25 47.984375 24.890625 L 55.449219 18.628906 C 55.261719 18.394531 54.660156 18.492188 54.367188 18.515625 C 51.886719 18.703125 48.773438 19.46875 46.410156 19.484375 C 46.019531 19.484375 45.820312 19.445312 45.585938 19.117188 L 50.632812 11.046875 C 50.28125 10.699219 42.054688 15.199219 41.484375 14.652344 L 43.890625 5.023438 L 36.546875 11.519531 C 36.203125 11.292969 36.210938 11.0625 36.171875 10.691406 C 35.972656 8.707031 35.941406 6.664062 35.941406 4.664062 L 35.460938 1.40625 C 34.074219 3.90625 32.695312 7.125 31.082031 9.433594 C 30.910156 9.679688 30.632812 10.152344 30.277344 10.070312 L 26.785156 0.929688 L 26.3125 1.296875 L 24.257812 10.566406 L 17.992188 3.101562 C 17.761719 3.289062 17.859375 3.890625 17.882812 4.183594 C 18.070312 6.65625 18.839844 9.785156 18.855469 12.148438 C 18.855469 12.433594 18.765625 12.921875 18.480469 12.980469 C 17.867188 13.101562 10.539062 7.550781 10.179688 7.925781 L 14.035156 16.707031 C 13.742188 17.105469 13.71875 17.046875 13.296875 16.96875 C 10.679688 16.492188 7.824219 15.289062 5.175781 14.726562 C 4.964844 14.683594 4.472656 14.53125 4.394531 14.789062 L 10.433594 21.515625 L 10.660156 22.371094 L 0.78125 22.859375 C 3.015625 24.769531 6.203125 25.820312 8.566406 27.46875 C 8.8125 27.644531 9.285156 27.921875 9.210938 28.273438 L 0.0625 32.007812 L 9.691406 33.9375 C 9.8125 34.65625 9.1875 35.0625 8.730469 35.503906 C 6.804688 37.355469 4.15625 38.886719 2.230469 40.796875 L 12.097656 39.71875 L 11.972656 40.671875 L 7.042969 48.386719 L 16.066406 44.53125 C 16.515625 44.832031 16.304688 44.886719 16.269531 45.199219 C 15.9375 48.058594 14.175781 51.199219 14.140625 54.164062 C 16.1875 52.617188 17.964844 50.464844 19.929688 48.875 C 20.214844 48.652344 21.445312 47.617188 21.730469 47.90625 L 22.214844 57.539062 L 26.910156 49.589844 L 27.734375 49.355469 L 31.359375 58.5 L 33.292969 48.867188 L 34.125 49.117188 L 40.035156 56.332031 C 39.945312 53.5625 39.144531 50.511719 39.0625 47.789062 C 39.046875 47.234375 38.933594 46.589844 39.4375 46.21875 L 47.746094 51.515625 L 43.898438 42.367188 L 53.527344 44.773438 L 47.027344 37.191406 C 47.242188 36.84375 47.492188 36.851562 47.859375 36.816406 C 49.875 36.597656 52.089844 36.613281 54.128906 36.582031 L 57.144531 36.109375 L 48.480469 31.167969 Z M 57.855469 27.1875 " clip-rule="nonzero"/></clipPath><clipPath id="ad303de845"><rect x="0" width="58" y="0" height="59"/></clipPath><clipPath id="aac71942d9"><path d="M 269.40625 115 L 338.578125 115 L 338.578125 194.546875 L 269.40625 194.546875 Z M 269.40625 115 " clip-rule="nonzero"/></clipPath><clipPath id="a9ad563660"><path d="M 319.4375 115.1875 C 319.4375 115.1875 327.28125 118.636719 338.320312 128.179688 C 337.617188 153.136719 327.410156 197.703125 269.824219 193.863281 C 286.609375 188.847656 327.589844 154.707031 319.4375 115.195312 " clip-rule="nonzero"/></clipPath><clipPath id="fd58c0987a"><path d="M 0.761719 0 L 69.398438 0 L 69.398438 79.546875 L 0.761719 79.546875 Z M 0.761719 0 " clip-rule="nonzero"/></clipPath><clipPath id="6b06a43450"><path d="M 50.4375 0.1875 C 50.4375 0.1875 58.28125 3.636719 69.320312 13.179688 C 68.617188 38.136719 58.410156 82.703125 0.824219 78.863281 C 17.609375 73.847656 58.589844 39.707031 50.4375 0.195312 " clip-rule="nonzero"/></clipPath><clipPath id="fbe2e7ad99"><rect x="0" width="70" y="0" height="80"/></clipPath><clipPath id="8b27fd0a6e"><path d="M 215.492188 106.554688 L 293.820312 106.554688 L 293.820312 192.511719 L 215.492188 192.511719 Z M 215.492188 106.554688 " clip-rule="nonzero"/></clipPath><clipPath id="11786117b0"><path d="M 215.679688 106.960938 C 226.742188 137.1875 246.332031 182.605469 293.320312 167.523438 C 274.082031 188.914062 260.867188 192.386719 260.867188 192.386719 C 260.867188 192.386719 235.070312 187.234375 223.828125 164.941406 C 215.621094 148.691406 215.679688 123.160156 215.679688 106.960938 " clip-rule="nonzero"/></clipPath><clipPath id="e8758acc5a"><path d="M 0.519531 0.800781 L 78.519531 0.800781 L 78.519531 86.480469 L 0.519531 86.480469 Z M 0.519531 0.800781 " clip-rule="nonzero"/></clipPath><clipPath id="99d0f9af77"><path d="M 0.679688 0.960938 C 11.742188 31.1875 31.332031 76.605469 78.320312 61.523438 C 59.082031 82.914062 45.867188 86.386719 45.867188 86.386719 C 45.867188 86.386719 20.070312 81.234375 8.828125 58.941406 C 0.621094 42.691406 0.679688 17.160156 0.679688 0.960938 " clip-rule="nonzero"/></clipPath><clipPath id="ce7eb81be9"><rect x="0" width="79" y="0" height="87"/></clipPath><clipPath id="98d4fa4eab"><path d="M 351.613281 44.566406 L 493 44.566406 L 493 196.378906 L 351.613281 196.378906 Z M 351.613281 44.566406 " clip-rule="nonzero"/></clipPath><clipPath id="3041182d74"><path d="M 491.527344 82.679688 L 465.042969 97.097656 C 457.527344 81.347656 443.765625 73.949219 421.976562 73.949219 C 396.988281 73.949219 383.601562 95.535156 383.601562 117.921875 C 383.601562 146.503906 399.613281 165.886719 424.378906 166.898438 C 441.777344 167.609375 452.519531 162.601562 460.429688 149.316406 L 492.945312 157.589844 C 482.054688 182.558594 461.472656 196.285156 424.785156 196.285156 C 380.195312 196.285156 351.613281 164.101562 351.613281 121.523438 C 351.613281 73.75 379.402344 44.566406 425.773438 44.566406 C 456.554688 44.566406 477.050781 54.1875 491.535156 82.679688 " clip-rule="nonzero"/></clipPath><clipPath id="4a8c911a0f"><path d="M 0.613281 0.566406 L 141.960938 0.566406 L 141.960938 152.320312 L 0.613281 152.320312 Z M 0.613281 0.566406 " clip-rule="nonzero"/></clipPath><clipPath id="a53ea9efbb"><path d="M 140.527344 38.679688 L 114.042969 53.097656 C 106.527344 37.347656 92.765625 29.949219 70.976562 29.949219 C 45.988281 29.949219 32.601562 51.535156 32.601562 73.921875 C 32.601562 102.503906 48.613281 121.886719 73.378906 122.898438 C 90.777344 123.609375 101.519531 118.601562 109.429688 105.316406 L 141.945312 113.589844 C 131.054688 138.558594 110.472656 152.285156 73.785156 152.285156 C 29.195312 152.285156 0.613281 120.101562 0.613281 77.523438 C 0.613281 29.75 28.402344 0.566406 74.773438 0.566406 C 105.554688 0.566406 126.050781 10.1875 140.535156 38.679688 " clip-rule="nonzero"/></clipPath><clipPath id="7e192f9f8d"><rect x="0" width="142" y="0" height="153"/></clipPath><clipPath id="2de8cbcd81"><path d="M 546.648438 31.507812 L 556.632812 31.507812 L 556.632812 208.492188 L 546.648438 208.492188 Z M 546.648438 31.507812 " clip-rule="nonzero"/></clipPath><clipPath id="98ff44e2a8"><path d="M 0.648438 0.507812 L 10.632812 0.507812 L 10.632812 177.492188 L 0.648438 177.492188 Z M 0.648438 0.507812 " clip-rule="nonzero"/></clipPath><clipPath id="71e5aaf161"><rect x="0" width="11" y="0" height="178"/></clipPath><clipPath id="06a6fa010e"><path d="M 612.261719 100.824219 L 645.773438 100.824219 L 645.773438 140.878906 L 612.261719 140.878906 Z M 612.261719 100.824219 " clip-rule="nonzero"/></clipPath><clipPath id="2f5e01c956"><path d="M 620.503906 100.824219 L 620.503906 122.898438 C 620.503906 129.917969 624.335938 132.894531 629.015625 132.894531 C 633.695312 132.894531 637.527344 129.917969 637.527344 122.898438 L 637.527344 100.824219 L 645.769531 100.824219 L 645.769531 121.890625 C 645.769531 131.355469 641.726562 140.828125 629.015625 140.828125 C 616.355469 140.820312 612.261719 131.355469 612.261719 121.890625 L 612.261719 100.824219 Z M 620.503906 100.824219 " clip-rule="nonzero"/></clipPath><clipPath id="5ca37048ec"><path d="M 0.261719 0.824219 L 33.773438 0.824219 L 33.773438 40.878906 L 0.261719 40.878906 Z M 0.261719 0.824219 " clip-rule="nonzero"/></clipPath><clipPath id="1dc42b852c"><path d="M 8.503906 0.824219 L 8.503906 22.898438 C 8.503906 29.917969 12.335938 32.894531 17.015625 32.894531 C 21.695312 32.894531 25.527344 29.917969 25.527344 22.898438 L 25.527344 0.824219 L 33.769531 0.824219 L 33.769531 21.890625 C 33.769531 31.355469 29.726562 40.828125 17.015625 40.828125 C 4.355469 40.820312 0.261719 31.355469 0.261719 21.890625 L 0.261719 0.824219 Z M 8.503906 0.824219 " clip-rule="nonzero"/></clipPath><clipPath id="8906016326"><rect x="0" width="34" y="0" height="41"/></clipPath><clipPath id="6e82f7898f"><path d="M 612.421875 46.921875 L 655.40625 46.921875 L 655.40625 85.957031 L 612.421875 85.957031 Z M 612.421875 46.921875 " clip-rule="nonzero"/></clipPath><clipPath id="908b63ded0"><path d="M 634.125 65.378906 L 647.421875 46.921875 L 655.296875 46.921875 L 655.296875 85.808594 L 647.476562 85.808594 L 647.476562 59.789062 L 635.609375 76.546875 L 632.152344 76.546875 L 620.242188 59.632812 L 620.242188 85.808594 L 612.421875 85.808594 L 612.421875 46.921875 L 620.933594 46.921875 Z M 634.125 65.378906 " clip-rule="nonzero"/></clipPath><clipPath id="fcb5d05a5e"><path d="M 0.421875 0.921875 L 43.40625 0.921875 L 43.40625 39.921875 L 0.421875 39.921875 Z M 0.421875 0.921875 " clip-rule="nonzero"/></clipPath><clipPath id="415c3a3bdc"><path d="M 22.125 19.378906 L 35.421875 0.921875 L 43.296875 0.921875 L 43.296875 39.808594 L 35.476562 39.808594 L 35.476562 13.789062 L 23.609375 30.546875 L 20.152344 30.546875 L 8.242188 13.632812 L 8.242188 39.808594 L 0.421875 39.808594 L 0.421875 0.921875 L 8.933594 0.921875 Z M 22.125 19.378906 " clip-rule="nonzero"/></clipPath><clipPath id="0988e54ee7"><rect x="0" width="44" y="0" height="40"/></clipPath><clipPath id="e968b7fe48"><path d="M 656.621094 100.824219 L 691 100.824219 L 691 139.824219 L 656.621094 139.824219 Z M 656.621094 100.824219 " clip-rule="nonzero"/></clipPath><clipPath id="1aaff4bd18"><path d="M 690.933594 100.824219 L 690.933594 139.710938 L 685.023438 139.710938 L 664.707031 115.398438 L 664.707031 139.710938 L 656.621094 139.710938 L 656.621094 100.824219 L 662.847656 100.824219 L 682.796875 125.289062 L 682.796875 100.824219 Z M 690.933594 100.824219 " clip-rule="nonzero"/></clipPath><clipPath id="631ae3797c"><path d="M 0.621094 0.824219 L 34.960938 0.824219 L 34.960938 39.824219 L 0.621094 39.824219 Z M 0.621094 0.824219 " clip-rule="nonzero"/></clipPath><clipPath id="eead56368c"><path d="M 34.933594 0.824219 L 34.933594 39.710938 L 29.023438 39.710938 L 8.707031 15.398438 L 8.707031 39.710938 L 0.621094 39.710938 L 0.621094 0.824219 L 6.847656 0.824219 L 26.796875 25.289062 L 26.796875 0.824219 Z M 34.933594 0.824219 " clip-rule="nonzero"/></clipPath><clipPath id="c064aba09a"><rect x="0" width="35" y="0" height="40"/></clipPath><clipPath id="2c5de04160"><path d="M 610.335938 153.707031 L 648.296875 153.707031 L 648.296875 194.101562 L 610.335938 194.101562 Z M 610.335938 153.707031 " clip-rule="nonzero"/></clipPath><clipPath id="9767621570"><path d="M 648.117188 167.976562 L 639.339844 170.691406 C 638.273438 165.15625 634.871094 161.539062 629.074219 161.539062 C 622.429688 161.539062 618.859375 167.285156 618.859375 173.238281 C 618.859375 180.84375 623.109375 186.273438 629.710938 186.273438 C 635.082031 186.273438 638.484375 182.234375 639.707031 177.875 L 647.949219 179.472656 C 646.089844 188.089844 640.242188 194.097656 629.816406 194.097656 C 617.949219 194.089844 610.34375 185.523438 610.34375 174.199219 C 610.34375 161.480469 617.742188 153.71875 630.078125 153.71875 C 638.269531 153.71875 646.40625 157.550781 648.109375 167.976562 " clip-rule="nonzero"/></clipPath><clipPath id="105da92c24"><path d="M 0.335938 0.707031 L 38.238281 0.707031 L 38.238281 41.101562 L 0.335938 41.101562 Z M 0.335938 0.707031 " clip-rule="nonzero"/></clipPath><clipPath id="b296011abe"><path d="M 38.117188 14.976562 L 29.339844 17.691406 C 28.273438 12.15625 24.871094 8.539062 19.074219 8.539062 C 12.429688 8.539062 8.859375 14.285156 8.859375 20.238281 C 8.859375 27.84375 13.109375 33.273438 19.710938 33.273438 C 25.082031 33.273438 28.484375 29.234375 29.707031 24.875 L 37.949219 26.472656 C 36.089844 35.089844 30.242188 41.097656 19.816406 41.097656 C 7.949219 41.089844 0.34375 32.523438 0.34375 21.199219 C 0.34375 8.480469 7.742188 0.71875 20.078125 0.71875 C 28.269531 0.71875 36.40625 4.550781 38.109375 14.976562 " clip-rule="nonzero"/></clipPath><clipPath id="071ddfa293"><rect x="0" width="39" y="0" height="42"/></clipPath><clipPath id="0868b6748d"><path d="M 655.027344 153.707031 L 694.671875 153.707031 L 694.671875 194.101562 L 655.027344 194.101562 Z M 655.027344 153.707031 " clip-rule="nonzero"/></clipPath><clipPath id="5b1bc47710"><path d="M 663.535156 174.199219 C 663.535156 180.582031 668.058594 186.808594 674.753906 186.808594 C 681.453125 186.808594 685.871094 180.582031 685.871094 174.199219 C 685.871094 167.234375 681.933594 161.433594 674.753906 161.433594 C 667.578125 161.433594 663.535156 167.226562 663.535156 174.199219 M 694.496094 174.199219 C 694.496094 184.835938 686.359375 194.097656 674.761719 194.097656 C 663.011719 194.097656 655.03125 184.84375 655.03125 174.199219 C 655.023438 162.597656 663.960938 153.71875 674.761719 153.71875 C 685.511719 153.71875 694.496094 162.597656 694.496094 174.199219 " clip-rule="nonzero"/></clipPath><clipPath id="9797d750ed"><path d="M 0.0273438 0.707031 L 39.558594 0.707031 L 39.558594 41.101562 L 0.0273438 41.101562 Z M 0.0273438 0.707031 " clip-rule="nonzero"/></clipPath><clipPath id="d54fc97320"><path d="M 8.535156 21.199219 C 8.535156 27.582031 13.058594 33.808594 19.753906 33.808594 C 26.453125 33.808594 30.871094 27.582031 30.871094 21.199219 C 30.871094 14.234375 26.933594 8.433594 19.753906 8.433594 C 12.578125 8.433594 8.535156 14.226562 8.535156 21.199219 M 39.496094 21.199219 C 39.496094 31.835938 31.359375 41.097656 19.761719 41.097656 C 8.011719 41.097656 0.03125 31.84375 0.03125 21.199219 C 0.0234375 9.597656 8.960938 0.71875 19.761719 0.71875 C 30.511719 0.71875 39.496094 9.597656 39.496094 21.199219 " clip-rule="nonzero"/></clipPath><clipPath id="2e4ab3ed33"><rect x="0" width="40" y="0" height="42"/></clipPath><clipPath id="73f071decb"><path d="M 701.9375 100.824219 L 710.292969 100.824219 L 710.292969 139.710938 L 701.9375 139.710938 Z M 701.9375 100.824219 " clip-rule="nonzero"/></clipPath><clipPath id="9664a60eb3"><path d="M 0.9375 0.824219 L 9.292969 0.824219 L 9.292969 39.710938 L 0.9375 39.710938 Z M 0.9375 0.824219 " clip-rule="nonzero"/></clipPath><clipPath id="6986b02189"><rect x="0" width="10" y="0" height="40"/></clipPath><clipPath id="cbaf8a2ff4"><path d="M 703.480469 154.726562 L 737.871094 154.726562 L 737.871094 193.667969 L 703.480469 193.667969 Z M 703.480469 154.726562 " clip-rule="nonzero"/></clipPath><clipPath id="f90595bfaa"><path d="M 711.671875 162.070312 L 711.671875 170.949219 L 721.617188 170.949219 C 726.035156 170.949219 729.972656 169.992188 729.972656 166.53125 C 729.972656 162.867188 727.472656 162.0625 721.40625 162.0625 Z M 703.480469 154.726562 L 722.847656 154.726562 C 730.722656 154.726562 737.742188 158.132812 737.742188 165.308594 C 737.742188 173.875 731.570312 175.996094 725.773438 176.746094 C 730.722656 181.644531 733.855469 187.066406 737.15625 193.609375 L 727.152344 193.609375 C 724.917969 188.019531 722.042969 183.183594 717.417969 178.285156 L 711.671875 178.285156 L 711.671875 193.617188 L 703.480469 193.617188 Z M 703.480469 154.726562 " clip-rule="nonzero"/></clipPath><clipPath id="446a3247ec"><path d="M 0.480469 0.726562 L 34.761719 0.726562 L 34.761719 39.667969 L 0.480469 39.667969 Z M 0.480469 0.726562 " clip-rule="nonzero"/></clipPath><clipPath id="121c5f3bd4"><path d="M 8.671875 8.070312 L 8.671875 16.949219 L 18.617188 16.949219 C 23.035156 16.949219 26.972656 15.992188 26.972656 12.53125 C 26.972656 8.867188 24.472656 8.0625 18.40625 8.0625 Z M 0.480469 0.726562 L 19.847656 0.726562 C 27.722656 0.726562 34.742188 4.132812 34.742188 11.308594 C 34.742188 19.875 28.570312 21.996094 22.773438 22.746094 C 27.722656 27.644531 30.855469 33.066406 34.15625 39.609375 L 24.152344 39.609375 C 21.917969 34.019531 19.042969 29.183594 14.417969 24.285156 L 8.671875 24.285156 L 8.671875 39.617188 L 0.480469 39.617188 Z M 0.480469 0.726562 " clip-rule="nonzero"/></clipPath><clipPath id="a2b7047e31"><rect x="0" width="35" y="0" height="40"/></clipPath><clipPath id="6aacdc9bc1"><path d="M 664.269531 45.898438 L 703.914062 45.898438 L 703.914062 86.292969 L 664.269531 86.292969 Z M 664.269531 45.898438 " clip-rule="nonzero"/></clipPath><clipPath id="fb5b1afe15"><path d="M 672.792969 66.382812 C 672.792969 72.765625 677.316406 78.992188 684.011719 78.992188 C 690.710938 78.992188 695.128906 72.765625 695.128906 66.382812 C 695.128906 59.417969 691.191406 53.621094 684.011719 53.621094 C 676.835938 53.621094 672.792969 59.417969 672.792969 66.382812 M 703.753906 66.382812 C 703.753906 77.019531 695.617188 86.273438 684.019531 86.273438 C 672.261719 86.28125 664.28125 77.027344 664.28125 66.382812 C 664.28125 54.789062 673.222656 45.910156 684.011719 45.910156 C 694.761719 45.910156 703.746094 54.789062 703.746094 66.382812 " clip-rule="nonzero"/></clipPath><clipPath id="3e5808157d"><path d="M 0.269531 0.898438 L 39.914062 0.898438 L 39.914062 41.292969 L 0.269531 41.292969 Z M 0.269531 0.898438 " clip-rule="nonzero"/></clipPath><clipPath id="1ced655119"><path d="M 8.792969 21.382812 C 8.792969 27.765625 13.316406 33.992188 20.011719 33.992188 C 26.710938 33.992188 31.128906 27.765625 31.128906 21.382812 C 31.128906 14.417969 27.191406 8.621094 20.011719 8.621094 C 12.835938 8.621094 8.792969 14.417969 8.792969 21.382812 M 39.753906 21.382812 C 39.753906 32.019531 31.617188 41.273438 20.019531 41.273438 C 8.261719 41.28125 0.28125 32.027344 0.28125 21.382812 C 0.28125 9.789062 9.222656 0.910156 20.011719 0.910156 C 30.761719 0.910156 39.746094 9.789062 39.746094 21.382812 " clip-rule="nonzero"/></clipPath><clipPath id="2cd0aa4260"><rect x="0" width="40" y="0" height="42"/></clipPath><clipPath id="3b054e84d3"><path d="M 707.09375 46.835938 L 745.992188 46.835938 L 745.992188 85.917969 L 707.09375 85.917969 Z M 707.09375 46.835938 " clip-rule="nonzero"/></clipPath><clipPath id="9178ed131f"><path d="M 726.570312 78.039062 L 737.578125 46.921875 L 745.820312 46.921875 L 731.832031 85.800781 L 721.085938 85.800781 L 707.097656 46.921875 L 715.769531 46.921875 Z M 726.570312 78.039062 " clip-rule="nonzero"/></clipPath><clipPath id="b2f4785f2c"><path d="M 0.09375 0.835938 L 38.921875 0.835938 L 38.921875 39.917969 L 0.09375 39.917969 Z M 0.09375 0.835938 " clip-rule="nonzero"/></clipPath><clipPath id="851861328f"><path d="M 19.570312 32.039062 L 30.578125 0.921875 L 38.820312 0.921875 L 24.832031 39.800781 L 14.085938 39.800781 L 0.0976562 0.921875 L 8.769531 0.921875 Z M 19.570312 32.039062 " clip-rule="nonzero"/></clipPath><clipPath id="7412ea76ca"><rect x="0" width="39" y="0" height="40"/></clipPath><clipPath id="4621e1454b"><path d="M 718.109375 100.824219 L 756.832031 100.824219 L 756.832031 139.851562 L 718.109375 139.851562 Z M 718.109375 100.824219 " clip-rule="nonzero"/></clipPath><clipPath id="93551ecf10"><path d="M 737.578125 131.941406 L 748.589844 100.824219 L 756.832031 100.824219 L 742.84375 139.710938 L 732.097656 139.710938 L 718.109375 100.824219 L 726.777344 100.824219 Z M 737.578125 131.941406 " clip-rule="nonzero"/></clipPath><clipPath id="fc89654b59"><path d="M 0.109375 0.824219 L 38.832031 0.824219 L 38.832031 39.851562 L 0.109375 39.851562 Z M 0.109375 0.824219 " clip-rule="nonzero"/></clipPath><clipPath id="c318e2eefa"><path d="M 19.578125 31.941406 L 30.589844 0.824219 L 38.832031 0.824219 L 24.84375 39.710938 L 14.097656 39.710938 L 0.109375 0.824219 L 8.777344 0.824219 Z M 19.578125 31.941406 " clip-rule="nonzero"/></clipPath><clipPath id="feb5af2354"><rect x="0" width="39" y="0" height="40"/></clipPath><clipPath id="3571315498"><path d="M 753.640625 46.921875 L 761.996094 46.921875 L 761.996094 85.808594 L 753.640625 85.808594 Z M 753.640625 46.921875 " clip-rule="nonzero"/></clipPath><clipPath id="ea395b3020"><path d="M 0.640625 0.921875 L 8.996094 0.921875 L 8.996094 39.808594 L 0.640625 39.808594 Z M 0.640625 0.921875 " clip-rule="nonzero"/></clipPath><clipPath id="804793bf12"><rect x="0" width="9" y="0" height="40"/></clipPath><clipPath id="b7fe384182"><path d="M 764.652344 100.824219 L 794.609375 100.824219 L 794.609375 139.757812 L 764.652344 139.757812 Z M 764.652344 100.824219 " clip-rule="nonzero"/></clipPath><clipPath id="665d00395f"><path d="M 793.691406 139.710938 L 764.652344 139.710938 L 764.652344 100.824219 L 794.117188 100.824219 L 793.324219 108.535156 L 772.894531 108.535156 L 772.894531 114.226562 L 789.117188 114.226562 L 788.269531 121.621094 L 772.894531 121.621094 L 772.894531 132.097656 L 794.492188 132.097656 Z M 793.691406 139.710938 " clip-rule="nonzero"/></clipPath><clipPath id="04f7657073"><path d="M 0.652344 0.824219 L 30.609375 0.824219 L 30.609375 39.757812 L 0.652344 39.757812 Z M 0.652344 0.824219 " clip-rule="nonzero"/></clipPath><clipPath id="a28e6000d9"><path d="M 29.691406 39.710938 L 0.652344 39.710938 L 0.652344 0.824219 L 30.117188 0.824219 L 29.324219 8.535156 L 8.894531 8.535156 L 8.894531 14.226562 L 25.117188 14.226562 L 24.269531 21.621094 L 8.894531 21.621094 L 8.894531 32.097656 L 30.492188 32.097656 Z M 29.691406 39.710938 " clip-rule="nonzero"/></clipPath><clipPath id="406aae5b5e"><rect x="0" width="31" y="0" height="40"/></clipPath><clipPath id="b0e07b444e"><path d="M 773 46.921875 L 815.988281 46.921875 L 815.988281 85.957031 L 773 85.957031 Z M 773 46.921875 " clip-rule="nonzero"/></clipPath><clipPath id="20cf07cd18"><path d="M 794.707031 65.378906 L 808.003906 46.921875 L 815.878906 46.921875 L 815.878906 85.808594 L 808.054688 85.808594 L 808.054688 59.789062 L 796.191406 76.546875 L 792.734375 76.546875 L 780.824219 59.632812 L 780.824219 85.808594 L 773 85.808594 L 773 46.921875 L 781.515625 46.921875 Z M 794.707031 65.378906 " clip-rule="nonzero"/></clipPath><clipPath id="9cdfc15f81"><path d="M 0 0.921875 L 42.988281 0.921875 L 42.988281 39.921875 L 0 39.921875 Z M 0 0.921875 " clip-rule="nonzero"/></clipPath><clipPath id="ddd09959c1"><path d="M 21.707031 19.378906 L 35.003906 0.921875 L 42.878906 0.921875 L 42.878906 39.808594 L 35.054688 39.808594 L 35.054688 13.789062 L 23.191406 30.546875 L 19.734375 30.546875 L 7.824219 13.632812 L 7.824219 39.808594 L 0 39.808594 L 0 0.921875 L 8.515625 0.921875 Z M 21.707031 19.378906 " clip-rule="nonzero"/></clipPath><clipPath id="47cf457810"><rect x="0" width="43" y="0" height="40"/></clipPath><clipPath id="1f45dded17"><path d="M 746.664062 154.644531 L 781.820312 154.644531 L 781.820312 193.726562 L 746.664062 193.726562 Z M 746.664062 154.644531 " clip-rule="nonzero"/></clipPath><clipPath id="3936b0039a"><path d="M 754.863281 186.328125 L 761.777344 186.328125 C 768.640625 186.328125 773.539062 183.457031 773.539062 175.476562 C 773.539062 166.59375 766.351562 162.125 758.695312 162.125 L 754.863281 162.125 Z M 746.671875 193.609375 L 746.671875 154.730469 L 759.59375 154.730469 C 772.945312 154.730469 781.78125 162.492188 781.78125 176.269531 C 781.78125 188.292969 772.953125 193.609375 762.414062 193.609375 Z M 746.671875 193.609375 " clip-rule="nonzero"/></clipPath><clipPath id="5013a14611"><path d="M 0.664062 0.644531 L 35.820312 0.644531 L 35.820312 39.679688 L 0.664062 39.679688 Z M 0.664062 0.644531 " clip-rule="nonzero"/></clipPath><clipPath id="8412ce151a"><path d="M 8.863281 32.328125 L 15.777344 32.328125 C 22.640625 32.328125 27.539062 29.457031 27.539062 21.476562 C 27.539062 12.59375 20.351562 8.125 12.695312 8.125 L 8.863281 8.125 Z M 0.671875 39.609375 L 0.671875 0.730469 L 13.59375 0.730469 C 26.945312 0.730469 35.78125 8.492188 35.78125 22.269531 C 35.78125 34.292969 26.953125 39.609375 16.414062 39.609375 Z M 0.671875 39.609375 " clip-rule="nonzero"/></clipPath><clipPath id="e579535fbd"><rect x="0" width="36" y="0" height="40"/></clipPath><clipPath id="a6599405dc"><path d="M 788.550781 153.707031 L 828.195312 153.707031 L 828.195312 194.101562 L 788.550781 194.101562 Z M 788.550781 153.707031 " clip-rule="nonzero"/></clipPath><clipPath id="03abb99520"><path d="M 797.207031 174.199219 C 797.207031 180.582031 801.730469 186.808594 808.425781 186.808594 C 815.125 186.808594 819.542969 180.582031 819.542969 174.199219 C 819.542969 167.234375 815.605469 161.433594 808.425781 161.433594 C 801.25 161.433594 797.207031 167.226562 797.207031 174.199219 M 828.167969 174.199219 C 828.167969 184.835938 820.03125 194.097656 808.433594 194.097656 C 796.683594 194.097656 788.703125 184.84375 788.703125 174.199219 C 788.695312 162.597656 797.628906 153.71875 808.425781 153.71875 C 819.175781 153.71875 828.160156 162.597656 828.160156 174.199219 " clip-rule="nonzero"/></clipPath><clipPath id="5bbe1931a7"><path d="M 0.640625 0.707031 L 40.195312 0.707031 L 40.195312 41.101562 L 0.640625 41.101562 Z M 0.640625 0.707031 " clip-rule="nonzero"/></clipPath><clipPath id="2064934112"><path d="M 9.207031 21.199219 C 9.207031 27.582031 13.730469 33.808594 20.425781 33.808594 C 27.125 33.808594 31.542969 27.582031 31.542969 21.199219 C 31.542969 14.234375 27.605469 8.433594 20.425781 8.433594 C 13.25 8.433594 9.207031 14.226562 9.207031 21.199219 M 40.167969 21.199219 C 40.167969 31.835938 32.03125 41.097656 20.433594 41.097656 C 8.683594 41.097656 0.703125 31.84375 0.703125 21.199219 C 0.695312 9.597656 9.628906 0.71875 20.425781 0.71875 C 31.175781 0.71875 40.160156 9.597656 40.160156 21.199219 " clip-rule="nonzero"/></clipPath><clipPath id="abffd376ef"><rect x="0" width="41" y="0" height="42"/></clipPath><clipPath id="3b06804861"><path d="M 826.9375 46.921875 L 835.292969 46.921875 L 835.292969 85.808594 L 826.9375 85.808594 Z M 826.9375 46.921875 " clip-rule="nonzero"/></clipPath><clipPath id="05b6ce22a8"><path d="M 0.9375 0.921875 L 9.292969 0.921875 L 9.292969 39.808594 L 0.9375 39.808594 Z M 0.9375 0.921875 " clip-rule="nonzero"/></clipPath><clipPath id="4ef8d66327"><rect x="0" width="10" y="0" height="40"/></clipPath><clipPath id="1f0ae32db9"><path d="M 837.148438 154.726562 L 871.832031 154.726562 L 871.832031 193.609375 L 837.148438 193.609375 Z M 837.148438 154.726562 " clip-rule="nonzero"/></clipPath><clipPath id="7014f1d9c4"><path d="M 857.632812 186.378906 C 861.140625 186.378906 863.804688 185.261719 863.804688 181.855469 C 863.804688 178.136719 861.140625 177.386719 857.632812 177.386719 L 845.390625 177.386719 L 845.390625 186.378906 Z M 845.390625 161.964844 L 845.390625 170.3125 L 855.398438 170.3125 C 859.4375 170.3125 861.515625 169.78125 861.515625 166 C 861.515625 162.917969 859.550781 161.957031 855.398438 161.957031 Z M 837.148438 193.609375 L 837.148438 154.726562 L 854.699219 154.726562 C 864.488281 154.726562 869.488281 158.238281 869.488281 165.257812 C 869.488281 168.289062 868.160156 171.589844 865.070312 172.757812 C 868.320312 173.5 871.828125 177.332031 871.828125 181.480469 C 871.828125 188.449219 867.523438 193.609375 858.6875 193.609375 Z M 837.148438 193.609375 " clip-rule="nonzero"/></clipPath><clipPath id="d6fb6724ea"><path d="M 0.148438 0.726562 L 34.832031 0.726562 L 34.832031 39.609375 L 0.148438 39.609375 Z M 0.148438 0.726562 " clip-rule="nonzero"/></clipPath><clipPath id="a573d133d1"><path d="M 20.632812 32.378906 C 24.140625 32.378906 26.804688 31.261719 26.804688 27.855469 C 26.804688 24.136719 24.140625 23.386719 20.632812 23.386719 L 8.390625 23.386719 L 8.390625 32.378906 Z M 8.390625 7.964844 L 8.390625 16.3125 L 18.398438 16.3125 C 22.4375 16.3125 24.515625 15.78125 24.515625 12 C 24.515625 8.917969 22.550781 7.957031 18.398438 7.957031 Z M 0.148438 39.609375 L 0.148438 0.726562 L 17.699219 0.726562 C 27.488281 0.726562 32.488281 4.238281 32.488281 11.257812 C 32.488281 14.289062 31.160156 17.589844 28.070312 18.757812 C 31.320312 19.5 34.828125 23.332031 34.828125 27.480469 C 34.828125 34.449219 30.523438 39.609375 21.6875 39.609375 Z M 0.148438 39.609375 " clip-rule="nonzero"/></clipPath><clipPath id="469097d484"><rect x="0" width="35" y="0" height="40"/></clipPath><clipPath id="27a5f508ba"><path d="M 846.296875 46.921875 L 876.253906 46.921875 L 876.253906 85.851562 L 846.296875 85.851562 Z M 846.296875 46.921875 " clip-rule="nonzero"/></clipPath><clipPath id="b234ef0d05"><path d="M 875.335938 85.808594 L 846.296875 85.808594 L 846.296875 46.921875 L 875.765625 46.921875 L 874.96875 54.628906 L 854.539062 54.628906 L 854.539062 60.324219 L 870.761719 60.324219 L 869.914062 67.71875 L 854.539062 67.71875 L 854.539062 78.195312 L 876.140625 78.195312 Z M 875.335938 85.808594 " clip-rule="nonzero"/></clipPath><clipPath id="0fa66c4d83"><path d="M 0.296875 0.921875 L 30.238281 0.921875 L 30.238281 39.851562 L 0.296875 39.851562 Z M 0.296875 0.921875 " clip-rule="nonzero"/></clipPath><clipPath id="f83b77513b"><path d="M 29.335938 39.808594 L 0.296875 39.808594 L 0.296875 0.921875 L 29.765625 0.921875 L 28.96875 8.628906 L 8.539062 8.628906 L 8.539062 14.324219 L 24.761719 14.324219 L 23.914062 21.71875 L 8.539062 21.71875 L 8.539062 32.195312 L 30.140625 32.195312 Z M 29.335938 39.808594 " clip-rule="nonzero"/></clipPath><clipPath id="695cde0717"><rect x="0" width="31" y="0" height="40"/></clipPath><clipPath id="91e4c5c0d9"><path d="M 884.859375 46.921875 L 919.304688 46.921875 L 919.304688 85.921875 L 884.859375 85.921875 Z M 884.859375 46.921875 " clip-rule="nonzero"/></clipPath><clipPath id="a851b989be"><path d="M 919.171875 46.921875 L 919.171875 85.808594 L 913.261719 85.808594 L 892.945312 61.492188 L 892.945312 85.808594 L 884.859375 85.808594 L 884.859375 46.921875 L 891.085938 46.921875 L 911.035156 71.386719 L 911.035156 46.921875 Z M 919.171875 46.921875 " clip-rule="nonzero"/></clipPath><clipPath id="2dd1a9d036"><path d="M 0.859375 0.921875 L 35.199219 0.921875 L 35.199219 39.921875 L 0.859375 39.921875 Z M 0.859375 0.921875 " clip-rule="nonzero"/></clipPath><clipPath id="3a95643151"><path d="M 35.171875 0.921875 L 35.171875 39.808594 L 29.261719 39.808594 L 8.945312 15.492188 L 8.945312 39.808594 L 0.859375 39.808594 L 0.859375 0.921875 L 7.085938 0.921875 L 27.035156 25.386719 L 27.035156 0.921875 Z M 35.171875 0.921875 " clip-rule="nonzero"/></clipPath><clipPath id="058336fec5"><rect x="0" width="36" y="0" height="40"/></clipPath><clipPath id="4e61bfd54d"><path d="M 803.042969 100.4375 L 837.628906 100.4375 L 837.628906 139.796875 L 803.042969 139.796875 Z M 803.042969 100.4375 " clip-rule="nonzero"/></clipPath><clipPath id="bd2e6388bf"><path d="M 811.402344 108.167969 L 811.402344 117.050781 L 821.347656 117.050781 C 825.765625 117.050781 829.703125 116.089844 829.703125 112.632812 C 829.703125 108.964844 827.207031 108.160156 821.136719 108.160156 Z M 803.214844 100.828125 L 822.578125 100.828125 C 830.453125 100.828125 837.472656 104.230469 837.472656 111.410156 C 837.472656 119.972656 831.300781 122.105469 825.503906 122.847656 C 830.453125 127.742188 833.589844 133.167969 836.886719 139.707031 L 826.882812 139.707031 C 824.648438 134.117188 821.777344 129.28125 817.148438 124.382812 L 811.402344 124.382812 L 811.402344 139.707031 L 803.214844 139.707031 Z M 803.214844 100.828125 " clip-rule="nonzero"/></clipPath><clipPath id="c160a74109"><path d="M 0.0429688 0.800781 L 34.601562 0.800781 L 34.601562 39.796875 L 0.0429688 39.796875 Z M 0.0429688 0.800781 " clip-rule="nonzero"/></clipPath><clipPath id="79a1db03d1"><path d="M 8.402344 8.167969 L 8.402344 17.050781 L 18.347656 17.050781 C 22.765625 17.050781 26.703125 16.089844 26.703125 12.632812 C 26.703125 8.964844 24.207031 8.160156 18.136719 8.160156 Z M 0.214844 0.828125 L 19.578125 0.828125 C 27.453125 0.828125 34.472656 4.230469 34.472656 11.410156 C 34.472656 19.972656 28.300781 22.105469 22.503906 22.847656 C 27.453125 27.742188 30.589844 33.167969 33.886719 39.707031 L 23.882812 39.707031 C 21.648438 34.117188 18.777344 29.28125 14.148438 24.382812 L 8.402344 24.382812 L 8.402344 39.707031 L 0.214844 39.707031 Z M 0.214844 0.828125 " clip-rule="nonzero"/></clipPath><clipPath id="c90544a6f3"><rect x="0" width="35" y="0" height="40"/></clipPath><clipPath id="938f18dc6b"><path d="M 843.59375 99.640625 L 879.773438 99.640625 L 879.773438 140.195312 L 843.59375 140.195312 Z M 843.59375 99.640625 " clip-rule="nonzero"/></clipPath><clipPath id="7ba58562cb"><path d="M 851.242188 126.199219 C 852.625 130.292969 857.039062 132.632812 860.925781 132.632812 C 866.511719 132.632812 871.140625 131.035156 871.140625 127.097656 C 871.140625 123.910156 863.796875 123.265625 861.617188 122.953125 C 858.902344 122.523438 856.351562 121.992188 852.839844 120.613281 C 848.796875 119.015625 846.1875 115.929688 846.1875 110.980469 C 846.1875 102.152344 855.816406 99.8125 862.304688 99.8125 C 870.390625 99.8125 877.839844 102.3125 879.539062 108.753906 L 871.882812 113.269531 C 870.976562 109.382812 866.671875 107.203125 862.785156 107.203125 C 859.703125 107.203125 854.648438 107.734375 854.648438 111.191406 C 854.648438 114.0625 861.5625 114.910156 864.277344 115.445312 C 871.566406 116.882812 879.601562 118.367188 879.601562 127.414062 C 879.601562 136.722656 869.175781 140.179688 861.886719 140.179688 C 851.242188 140.179688 845.289062 135.65625 843.691406 130.496094 Z M 851.242188 126.199219 " clip-rule="nonzero"/></clipPath><clipPath id="e882ab7ef7"><path d="M 0.601562 0.640625 L 36.773438 0.640625 L 36.773438 41.195312 L 0.601562 41.195312 Z M 0.601562 0.640625 " clip-rule="nonzero"/></clipPath><clipPath id="48cc1112fc"><path d="M 8.242188 27.199219 C 9.625 31.292969 14.039062 33.632812 17.925781 33.632812 C 23.511719 33.632812 28.140625 32.035156 28.140625 28.097656 C 28.140625 24.910156 20.796875 24.265625 18.617188 23.953125 C 15.902344 23.523438 13.351562 22.992188 9.839844 21.613281 C 5.796875 20.015625 3.1875 16.929688 3.1875 11.980469 C 3.1875 3.152344 12.816406 0.8125 19.304688 0.8125 C 27.390625 0.8125 34.839844 3.3125 36.539062 9.753906 L 28.882812 14.269531 C 27.976562 10.382812 23.671875 8.203125 19.785156 8.203125 C 16.703125 8.203125 11.648438 8.734375 11.648438 12.191406 C 11.648438 15.0625 18.5625 15.910156 21.277344 16.445312 C 28.566406 17.882812 36.601562 19.367188 36.601562 28.414062 C 36.601562 37.722656 26.175781 41.179688 18.886719 41.179688 C 8.242188 41.179688 2.289062 36.65625 0.691406 31.496094 Z M 8.242188 27.199219 " clip-rule="nonzero"/></clipPath><clipPath id="91c94d838c"><rect x="0" width="37" y="0" height="42"/></clipPath><clipPath id="44d64a490e"><path d="M 888.519531 100.4375 L 897 100.4375 L 897 139.796875 L 888.519531 139.796875 Z M 888.519531 100.4375 " clip-rule="nonzero"/></clipPath><clipPath id="b2fbab1c23"><path d="M 896.878906 139.707031 L 888.53125 139.707031 L 888.53125 100.828125 L 896.886719 100.828125 Z M 896.878906 139.707031 " clip-rule="nonzero"/></clipPath><clipPath id="fee5df7af1"><path d="M 0.519531 0.800781 L 9 0.800781 L 9 39.796875 L 0.519531 39.796875 Z M 0.519531 0.800781 " clip-rule="nonzero"/></clipPath><clipPath id="25bd486d29"><path d="M 8.878906 39.707031 L 0.53125 39.707031 L 0.53125 0.828125 L 8.886719 0.828125 Z M 8.878906 39.707031 " clip-rule="nonzero"/></clipPath><clipPath id="eae0cade03"><rect x="0" width="9" y="0" height="40"/></clipPath><clipPath id="545f4a3bb2"><path d="M 904.421875 100.4375 L 937.417969 100.4375 L 937.417969 139.796875 L 904.421875 139.796875 Z M 904.421875 100.4375 " clip-rule="nonzero"/></clipPath><clipPath id="f921704ef6"><path d="M 904.433594 100.828125 L 937.253906 100.828125 L 936.457031 108.535156 L 925.074219 108.535156 L 925.074219 139.707031 L 916.769531 139.707031 L 916.769531 108.535156 L 904.433594 108.535156 Z M 904.433594 100.828125 " clip-rule="nonzero"/></clipPath><clipPath id="ebdc54fa1e"><path d="M 0.421875 0.800781 L 33.417969 0.800781 L 33.417969 39.796875 L 0.421875 39.796875 Z M 0.421875 0.800781 " clip-rule="nonzero"/></clipPath><clipPath id="f461ee9276"><path d="M 0.433594 0.828125 L 33.253906 0.828125 L 32.457031 8.535156 L 21.074219 8.535156 L 21.074219 39.707031 L 12.769531 39.707031 L 12.769531 8.535156 L 0.433594 8.535156 Z M 0.433594 0.828125 " clip-rule="nonzero"/></clipPath><clipPath id="6335f7d712"><rect x="0" width="34" y="0" height="40"/></clipPath><clipPath id="3bd0f568eb"><path d="M 937.023438 100.4375 L 975 100.4375 L 975 139.796875 L 937.023438 139.796875 Z M 937.023438 100.4375 " clip-rule="nonzero"/></clipPath><clipPath id="99c2ab3c11"><path d="M 950.339844 123.964844 L 961.882812 123.964844 L 957.039062 107.847656 L 955.230469 107.847656 Z M 963.855469 130.929688 L 948.316406 130.929688 L 945.757812 139.707031 L 937.199219 139.707031 L 949.066406 100.828125 L 962.949219 100.828125 L 974.867188 139.714844 L 966.457031 139.714844 Z M 963.855469 130.929688 " clip-rule="nonzero"/></clipPath><clipPath id="e5e7fbf36c"><path d="M 0.199219 0.800781 L 37.878906 0.800781 L 37.878906 39.796875 L 0.199219 39.796875 Z M 0.199219 0.800781 " clip-rule="nonzero"/></clipPath><clipPath id="bb0503a96e"><path d="M 13.339844 23.964844 L 24.882812 23.964844 L 20.039062 7.847656 L 18.230469 7.847656 Z M 26.855469 30.929688 L 11.316406 30.929688 L 8.757812 39.707031 L 0.199219 39.707031 L 12.066406 0.828125 L 25.949219 0.828125 L 37.867188 39.714844 L 29.457031 39.714844 Z M 26.855469 30.929688 " clip-rule="nonzero"/></clipPath><clipPath id="d0c3a42409"><rect x="0" width="38" y="0" height="40"/></clipPath><clipPath id="978bbb31b9"><path d="M 880.167969 142.179688 L 910.382812 142.179688 L 910.382812 193.867188 L 880.167969 193.867188 Z M 880.167969 142.179688 " clip-rule="nonzero"/></clipPath><clipPath id="6a1d96fb90"><path d="M 902.414062 145.847656 L 890.445312 152.660156 L 889.222656 150.582031 L 899.699219 142.550781 Z M 909.539062 193.617188 L 880.5 193.617188 L 880.5 154.730469 L 909.96875 154.730469 L 909.171875 162.4375 L 888.742188 162.4375 L 888.742188 168.132812 L 904.964844 168.132812 L 904.109375 175.527344 L 888.734375 175.527344 L 888.734375 186.003906 L 910.335938 186.003906 Z M 909.539062 193.617188 " clip-rule="nonzero"/></clipPath><clipPath id="789d59d209"><path d="M 0.320312 0.320312 L 30.382812 0.320312 L 30.382812 51.679688 L 0.320312 51.679688 Z M 0.320312 0.320312 " clip-rule="nonzero"/></clipPath><clipPath id="5f4b8b5499"><path d="M 22.414062 3.847656 L 10.445312 10.660156 L 9.222656 8.582031 L 19.699219 0.550781 Z M 29.539062 51.617188 L 0.5 51.617188 L 0.5 12.730469 L 29.96875 12.730469 L 29.171875 20.4375 L 8.742188 20.4375 L 8.742188 26.132812 L 24.964844 26.132812 L 24.109375 33.527344 L 8.734375 33.527344 L 8.734375 44.003906 L 30.335938 44.003906 Z M 29.539062 51.617188 " clip-rule="nonzero"/></clipPath><clipPath id="3f97c5eb37"><rect x="0" width="31" y="0" height="52"/></clipPath><clipPath id="e2a6a7413f"><path d="M 916.347656 153.710938 L 952.527344 153.710938 L 952.527344 194.261719 L 916.347656 194.261719 Z M 916.347656 153.710938 " clip-rule="nonzero"/></clipPath><clipPath id="7015464fbf"><path d="M 923.902344 180.101562 C 925.28125 184.195312 929.699219 186.535156 933.585938 186.535156 C 939.171875 186.535156 943.800781 184.9375 943.800781 181 C 943.800781 177.804688 936.457031 177.167969 934.277344 176.855469 C 931.558594 176.425781 929.011719 175.894531 925.5 174.515625 C 921.457031 172.917969 918.847656 169.835938 918.847656 164.882812 C 918.847656 156.054688 928.476562 153.714844 934.964844 153.714844 C 943.050781 153.714844 950.496094 156.214844 952.199219 162.65625 L 944.542969 167.179688 C 943.636719 163.292969 939.332031 161.117188 935.445312 161.117188 C 932.363281 161.117188 927.308594 161.652344 927.308594 165.109375 C 927.308594 167.980469 934.222656 168.828125 936.9375 169.363281 C 944.226562 170.800781 952.261719 172.285156 952.261719 181.332031 C 952.261719 190.640625 941.835938 194.097656 934.546875 194.097656 C 923.902344 194.097656 917.949219 189.574219 916.351562 184.414062 Z M 923.902344 180.101562 " clip-rule="nonzero"/></clipPath><clipPath id="8af8974d40"><path d="M 0.347656 0.710938 L 36.320312 0.710938 L 36.320312 41.160156 L 0.347656 41.160156 Z M 0.347656 0.710938 " clip-rule="nonzero"/></clipPath><clipPath id="b61b94f73c"><path d="M 7.902344 27.101562 C 9.28125 31.195312 13.699219 33.535156 17.585938 33.535156 C 23.171875 33.535156 27.800781 31.9375 27.800781 28 C 27.800781 24.804688 20.457031 24.167969 18.277344 23.855469 C 15.558594 23.425781 13.011719 22.894531 9.5 21.515625 C 5.457031 19.917969 2.847656 16.835938 2.847656 11.882812 C 2.847656 3.054688 12.476562 0.714844 18.964844 0.714844 C 27.050781 0.714844 34.496094 3.214844 36.199219 9.65625 L 28.542969 14.179688 C 27.636719 10.292969 23.332031 8.117188 19.445312 8.117188 C 16.363281 8.117188 11.308594 8.652344 11.308594 12.109375 C 11.308594 14.980469 18.222656 15.828125 20.9375 16.363281 C 28.226562 17.800781 36.261719 19.285156 36.261719 28.332031 C 36.261719 37.640625 25.835938 41.097656 18.546875 41.097656 C 7.902344 41.097656 1.949219 36.574219 0.351562 31.414062 Z M 7.902344 27.101562 " clip-rule="nonzero"/></clipPath><clipPath id="b0194e657e"><rect x="0" width="37" y="0" height="42"/></clipPath><clipPath id="bfdbb44519"><path d="M 926.710938 46.835938 L 959.625 46.835938 L 959.625 85.917969 L 926.710938 85.917969 Z M 926.710938 46.835938 " clip-rule="nonzero"/></clipPath><clipPath id="4cae515ab6"><path d="M 926.722656 46.921875 L 959.539062 46.921875 L 958.746094 54.632812 L 947.359375 54.632812 L 947.359375 85.800781 L 939.058594 85.800781 L 939.058594 54.632812 L 926.722656 54.632812 Z M 926.722656 46.921875 " clip-rule="nonzero"/></clipPath><clipPath id="34f344cf7a"><path d="M 0.710938 0.835938 L 33.625 0.835938 L 33.625 39.917969 L 0.710938 39.917969 Z M 0.710938 0.835938 " clip-rule="nonzero"/></clipPath><clipPath id="59d293d231"><path d="M 0.722656 0.921875 L 33.539062 0.921875 L 32.746094 8.632812 L 21.359375 8.632812 L 21.359375 39.800781 L 13.058594 39.800781 L 13.058594 8.632812 L 0.722656 8.632812 Z M 0.722656 0.921875 " clip-rule="nonzero"/></clipPath><clipPath id="b2dcf049a9"><rect x="0" width="34" y="0" height="40"/></clipPath><clipPath id="4d7f18597d"><path d="M 964.859375 45.898438 L 1004.503906 45.898438 L 1004.503906 86.292969 L 964.859375 86.292969 Z M 964.859375 45.898438 " clip-rule="nonzero"/></clipPath><clipPath id="f7e46ceb0e"><path d="M 973.371094 66.382812 C 973.371094 72.765625 977.894531 78.992188 984.589844 78.992188 C 991.289062 78.992188 995.707031 72.765625 995.707031 66.382812 C 995.707031 59.417969 991.769531 53.621094 984.589844 53.621094 C 977.414062 53.621094 973.371094 59.417969 973.371094 66.382812 M 1004.332031 66.382812 C 1004.332031 77.019531 996.191406 86.273438 984.597656 86.273438 C 972.847656 86.273438 964.867188 77.019531 964.867188 66.382812 C 964.859375 54.789062 973.796875 45.910156 984.589844 45.910156 C 995.339844 45.910156 1004.324219 54.789062 1004.324219 66.382812 " clip-rule="nonzero"/></clipPath><clipPath id="27db5c44d4"><path d="M 0.859375 0.898438 L 40.398438 0.898438 L 40.398438 41.292969 L 0.859375 41.292969 Z M 0.859375 0.898438 " clip-rule="nonzero"/></clipPath><clipPath id="d61032ca23"><path d="M 9.371094 21.382812 C 9.371094 27.765625 13.894531 33.992188 20.589844 33.992188 C 27.289062 33.992188 31.707031 27.765625 31.707031 21.382812 C 31.707031 14.417969 27.769531 8.621094 20.589844 8.621094 C 13.414062 8.621094 9.371094 14.417969 9.371094 21.382812 M 40.332031 21.382812 C 40.332031 32.019531 32.191406 41.273438 20.597656 41.273438 C 8.847656 41.273438 0.867188 32.019531 0.867188 21.382812 C 0.859375 9.789062 9.796875 0.910156 20.589844 0.910156 C 31.339844 0.910156 40.324219 9.789062 40.324219 21.382812 " clip-rule="nonzero"/></clipPath><clipPath id="1fe84516ba"><rect x="0" width="41" y="0" height="42"/></clipPath><clipPath id="f517bb8ac2"><path d="M 982.730469 100.824219 L 1017 100.824219 L 1017 139.761719 L 982.730469 139.761719 Z M 982.730469 100.824219 " clip-rule="nonzero"/></clipPath><clipPath id="1184549f1b"><path d="M 990.921875 108.167969 L 990.921875 117.046875 L 1000.863281 117.046875 C 1005.28125 117.046875 1009.21875 116.085938 1009.21875 112.628906 C 1009.21875 108.960938 1006.722656 108.160156 1000.65625 108.160156 Z M 982.730469 100.824219 L 1002.09375 100.824219 C 1009.96875 100.824219 1016.988281 104.230469 1016.988281 111.40625 C 1016.988281 119.972656 1010.816406 122.101562 1005.019531 122.84375 C 1009.96875 127.742188 1013.105469 133.164062 1016.40625 139.703125 L 1006.398438 139.703125 C 1004.164062 134.117188 1001.292969 129.28125 996.664062 124.382812 L 990.921875 124.382812 L 990.921875 139.710938 L 982.730469 139.710938 Z M 982.730469 100.824219 " clip-rule="nonzero"/></clipPath><clipPath id="281b1d279b"><path d="M 0.730469 0.824219 L 35 0.824219 L 35 39.761719 L 0.730469 39.761719 Z M 0.730469 0.824219 " clip-rule="nonzero"/></clipPath><clipPath id="1478ab32f3"><path d="M 8.921875 8.167969 L 8.921875 17.046875 L 18.863281 17.046875 C 23.28125 17.046875 27.21875 16.085938 27.21875 12.628906 C 27.21875 8.960938 24.722656 8.160156 18.65625 8.160156 Z M 0.730469 0.824219 L 20.09375 0.824219 C 27.96875 0.824219 34.988281 4.230469 34.988281 11.40625 C 34.988281 19.972656 28.816406 22.101562 23.019531 22.84375 C 27.96875 27.742188 31.105469 33.164062 34.40625 39.703125 L 24.398438 39.703125 C 22.164062 34.117188 19.292969 29.28125 14.664062 24.382812 L 8.921875 24.382812 L 8.921875 39.710938 L 0.730469 39.710938 Z M 0.730469 0.824219 " clip-rule="nonzero"/></clipPath><clipPath id="4a0cc3773f"><rect x="0" width="35" y="0" height="40"/></clipPath><clipPath id="d90a97811f"><path d="M 1025.921875 100.824219 L 1034.277344 100.824219 L 1034.277344 139.710938 L 1025.921875 139.710938 Z M 1025.921875 100.824219 " clip-rule="nonzero"/></clipPath><clipPath id="e00f455b3b"><path d="M 0.921875 0.824219 L 9.277344 0.824219 L 9.277344 39.710938 L 0.921875 39.710938 Z M 0.921875 0.824219 " clip-rule="nonzero"/></clipPath><clipPath id="865f7b2b5f"><rect x="0" width="10" y="0" height="40"/></clipPath><clipPath id="6282d786be"><path d="M 1043.207031 99.8125 L 1082.832031 99.8125 L 1082.832031 140.207031 L 1043.207031 140.207031 Z M 1043.207031 99.8125 " clip-rule="nonzero"/></clipPath><clipPath id="4c528aec3c"><path d="M 1051.71875 120.296875 C 1051.71875 126.679688 1056.242188 132.902344 1062.941406 132.902344 C 1069.636719 132.902344 1074.054688 126.679688 1074.054688 120.296875 C 1074.054688 113.328125 1070.117188 107.53125 1062.941406 107.53125 C 1055.761719 107.53125 1051.71875 113.320312 1051.71875 120.296875 M 1082.679688 120.296875 C 1082.679688 130.929688 1074.542969 140.1875 1062.949219 140.1875 C 1051.1875 140.1875 1043.207031 130.929688 1043.207031 120.296875 C 1043.207031 108.695312 1052.148438 99.8125 1062.941406 99.8125 C 1073.6875 99.8125 1082.671875 108.695312 1082.671875 120.296875 " clip-rule="nonzero"/></clipPath><clipPath id="cbe17754b1"><path d="M 0.207031 0.8125 L 39.832031 0.8125 L 39.832031 41.207031 L 0.207031 41.207031 Z M 0.207031 0.8125 " clip-rule="nonzero"/></clipPath><clipPath id="37daeef24d"><path d="M 8.71875 21.296875 C 8.71875 27.679688 13.242188 33.902344 19.941406 33.902344 C 26.636719 33.902344 31.054688 27.679688 31.054688 21.296875 C 31.054688 14.328125 27.117188 8.53125 19.941406 8.53125 C 12.761719 8.53125 8.71875 14.320312 8.71875 21.296875 M 39.679688 21.296875 C 39.679688 31.929688 31.542969 41.1875 19.949219 41.1875 C 8.1875 41.1875 0.207031 31.929688 0.207031 21.296875 C 0.207031 9.695312 9.148438 0.8125 19.941406 0.8125 C 30.6875 0.8125 39.671875 9.695312 39.671875 21.296875 " clip-rule="nonzero"/></clipPath><clipPath id="170431477b"><rect x="0" width="40" y="0" height="42"/></clipPath></defs><g clip-path="url(#ebdc2a30ce)"><g clip-path="url(#09b3811334)"><g transform="matrix(1, 0, 0, 1, 42, 46)"><g clip-path="url(#59162feeb1)"><g clip-path="url(#217df51900)"><g clip-path="url(#d02b03e6c2)"><path fill="#ffffff" d="M 0.324219 0.730469 L 158.148438 0.730469 L 158.148438 144.003906 L 0.324219 144.003906 Z M 0.324219 0.730469 " fill-opacity="1" fill-rule="nonzero"/></g></g></g></g></g></g><g clip-path="url(#6266541676)"><g clip-path="url(#9351b0a8ff)"><g transform="matrix(1, 0, 0, 1, 215, 46)"><g clip-path="url(#2f06b3d7bf)"><g clip-path="url(#4152da19ee)"><g clip-path="url(#8b4763443e)"><rect x="-462.5" width="1620" fill="#ffffff" height="345.599992" y="-98.799999" fill-opacity="1"/></g></g></g></g></g></g><g clip-path="url(#86877c2363)"><g clip-path="url(#cea8a08a63)"><g transform="matrix(1, 0, 0, 1, 308, 46)"><g clip-path="url(#8c568d2c6e)"><g clip-path="url(#dfd87d6f3e)"><g clip-path="url(#95c42d01c3)"><rect x="-555.5" width="1620" fill="#ffffff" height="345.599992" y="-98.799999" fill-opacity="1"/></g></g></g></g></g></g><g clip-path="url(#5feb36d6ef)"><g clip-path="url(#d8b250f4d8)"><g transform="matrix(1, 0, 0, 1, 247, 98)"><g clip-path="url(#ad303de845)"><g clip-path="url(#fd2dfcc1d9)"><g clip-path="url(#36a92a2ff6)"><rect x="-494.5" width="1620" fill="#ffffff" height="345.599992" y="-150.799999" fill-opacity="1"/></g></g></g></g></g></g><g clip-path="url(#aac71942d9)"><g clip-path="url(#a9ad563660)"><g transform="matrix(1, 0, 0, 1, 269, 115)"><g clip-path="url(#fbe2e7ad99)"><g clip-path="url(#fd58c0987a)"><g clip-path="url(#6b06a43450)"><rect x="-516.5" width="1620" fill="#ffffff" height="345.599992" y="-167.799999" fill-opacity="1"/></g></g></g></g></g></g><g clip-path="url(#8b27fd0a6e)"><g clip-path="url(#11786117b0)"><g transform="matrix(1, 0, 0, 1, 215, 106)"><g clip-path="url(#ce7eb81be9)"><g clip-path="url(#e8758acc5a)"><g clip-path="url(#99d0f9af77)"><rect x="-462.5" width="1620" fill="#ffffff" height="345.599992" y="-158.799999" fill-opacity="1"/></g></g></g></g></g></g><g clip-path="url(#98d4fa4eab)"><g clip-path="url(#3041182d74)"><g transform="matrix(1, 0, 0, 1, 351, 44)"><g clip-path="url(#7e192f9f8d)"><g clip-path="url(#4a8c911a0f)"><g clip-path="url(#a53ea9efbb)"><path fill="#ffffff" d="M 0.613281 0.566406 L 141.9375 0.566406 L 141.9375 152.378906 L 0.613281 152.378906 Z M 0.613281 0.566406 " fill-opacity="1" fill-rule="nonzero"/></g></g></g></g></g></g><g clip-path="url(#2de8cbcd81)"><g transform="matrix(1, 0, 0, 1, 546, 31)"><g clip-path="url(#71e5aaf161)"><g clip-path="url(#98ff44e2a8)"><path fill="#ffffff" d="M 0.648438 0.507812 L 10.632812 0.507812 L 10.632812 177.472656 L 0.648438 177.472656 Z M 0.648438 0.507812 " fill-opacity="1" fill-rule="nonzero"/></g></g></g></g><g clip-path="url(#06a6fa010e)"><g clip-path="url(#2f5e01c956)"><g transform="matrix(1, 0, 0, 1, 612, 100)"><g clip-path="url(#8906016326)"><g clip-path="url(#5ca37048ec)"><g clip-path="url(#1dc42b852c)"><path fill="#ffffff" d="M 0.261719 0.824219 L 33.773438 0.824219 L 33.773438 40.878906 L 0.261719 40.878906 Z M 0.261719 0.824219 " fill-opacity="1" fill-rule="nonzero"/></g></g></g></g></g></g><g clip-path="url(#6e82f7898f)"><g clip-path="url(#908b63ded0)"><g transform="matrix(1, 0, 0, 1, 612, 46)"><g clip-path="url(#0988e54ee7)"><g clip-path="url(#fcb5d05a5e)"><g clip-path="url(#415c3a3bdc)"><path fill="#ffffff" d="M 0.421875 0.921875 L 43.253906 0.921875 L 43.253906 39.804688 L 0.421875 39.804688 Z M 0.421875 0.921875 " fill-opacity="1" fill-rule="nonzero"/></g></g></g></g></g></g><g clip-path="url(#e968b7fe48)"><g clip-path="url(#1aaff4bd18)"><g transform="matrix(1, 0, 0, 1, 656, 100)"><g clip-path="url(#c064aba09a)"><g clip-path="url(#631ae3797c)"><g clip-path="url(#eead56368c)"><path fill="#ffffff" d="M 0.621094 0.824219 L 34.929688 0.824219 L 34.929688 39.691406 L 0.621094 39.691406 Z M 0.621094 0.824219 " fill-opacity="1" fill-rule="nonzero"/></g></g></g></g></g></g><g clip-path="url(#2c5de04160)"><g clip-path="url(#9767621570)"><g transform="matrix(1, 0, 0, 1, 610, 153)"><g clip-path="url(#071ddfa293)"><g clip-path="url(#105da92c24)"><g clip-path="url(#b296011abe)"><rect x="-857.5" width="1620" fill="#ffffff" height="345.599992" y="-205.799999" fill-opacity="1"/></g></g></g></g></g></g><g clip-path="url(#0868b6748d)"><g clip-path="url(#5b1bc47710)"><g transform="matrix(1, 0, 0, 1, 655, 153)"><g clip-path="url(#2e4ab3ed33)"><g clip-path="url(#9797d750ed)"><g clip-path="url(#d54fc97320)"><rect x="-902.5" width="1620" fill="#ffffff" height="345.599992" y="-205.799999" fill-opacity="1"/></g></g></g></g></g></g><g clip-path="url(#73f071decb)"><g transform="matrix(1, 0, 0, 1, 701, 100)"><g clip-path="url(#6986b02189)"><g clip-path="url(#9664a60eb3)"><path fill="#ffffff" d="M 0.9375 0.824219 L 9.289062 0.824219 L 9.289062 39.710938 L 0.9375 39.710938 Z M 0.9375 0.824219 " fill-opacity="1" fill-rule="nonzero"/></g></g></g></g><g clip-path="url(#cbaf8a2ff4)"><g clip-path="url(#f90595bfaa)"><g transform="matrix(1, 0, 0, 1, 703, 154)"><g clip-path="url(#a2b7047e31)"><g clip-path="url(#446a3247ec)"><g clip-path="url(#121c5f3bd4)"><path fill="#ffffff" d="M 0.480469 0.726562 L 34.738281 0.726562 L 34.738281 39.667969 L 0.480469 39.667969 Z M 0.480469 0.726562 " fill-opacity="1" fill-rule="nonzero"/></g></g></g></g></g></g><g clip-path="url(#6aacdc9bc1)"><g clip-path="url(#fb5b1afe15)"><g transform="matrix(1, 0, 0, 1, 664, 45)"><g clip-path="url(#2cd0aa4260)"><g clip-path="url(#3e5808157d)"><g clip-path="url(#1ced655119)"><rect x="-911.5" width="1620" fill="#ffffff" height="345.599992" y="-97.799999" fill-opacity="1"/></g></g></g></g></g></g><g clip-path="url(#3b054e84d3)"><g clip-path="url(#9178ed131f)"><g transform="matrix(1, 0, 0, 1, 707, 46)"><g clip-path="url(#7412ea76ca)"><g clip-path="url(#b2f4785f2c)"><g clip-path="url(#851861328f)"><rect x="-954.5" width="1620" fill="#ffffff" height="345.599992" y="-98.799999" fill-opacity="1"/></g></g></g></g></g></g><g clip-path="url(#4621e1454b)"><g clip-path="url(#93551ecf10)"><g transform="matrix(1, 0, 0, 1, 718, 100)"><g clip-path="url(#feb5af2354)"><g clip-path="url(#fc89654b59)"><g clip-path="url(#c318e2eefa)"><path fill="#ffffff" d="M 0.109375 0.824219 L 38.832031 0.824219 L 38.832031 39.699219 L 0.109375 39.699219 Z M 0.109375 0.824219 " fill-opacity="1" fill-rule="nonzero"/></g></g></g></g></g></g><g clip-path="url(#3571315498)"><g transform="matrix(1, 0, 0, 1, 753, 46)"><g clip-path="url(#804793bf12)"><g clip-path="url(#ea395b3020)"><path fill="#ffffff" d="M 0.640625 0.921875 L 8.992188 0.921875 L 8.992188 39.804688 L 0.640625 39.804688 Z M 0.640625 0.921875 " fill-opacity="1" fill-rule="nonzero"/></g></g></g></g><g clip-path="url(#b7fe384182)"><g clip-path="url(#665d00395f)"><g transform="matrix(1, 0, 0, 1, 764, 100)"><g clip-path="url(#406aae5b5e)"><g clip-path="url(#04f7657073)"><g clip-path="url(#a28e6000d9)"><path fill="#ffffff" d="M 0.652344 0.824219 L 30.492188 0.824219 L 30.492188 39.757812 L 0.652344 39.757812 Z M 0.652344 0.824219 " fill-opacity="1" fill-rule="nonzero"/></g></g></g></g></g></g><g clip-path="url(#b0e07b444e)"><g clip-path="url(#20cf07cd18)"><g transform="matrix(1, 0, 0, 1, 773, 46)"><g clip-path="url(#47cf457810)"><g clip-path="url(#9cdfc15f81)"><g clip-path="url(#ddd09959c1)"><path fill="#ffffff" d="M 0 0.921875 L 42.835938 0.921875 L 42.835938 39.804688 L 0 39.804688 Z M 0 0.921875 " fill-opacity="1" fill-rule="nonzero"/></g></g></g></g></g></g><g clip-path="url(#1f45dded17)"><g clip-path="url(#3936b0039a)"><g transform="matrix(1, 0, 0, 1, 746, 154)"><g clip-path="url(#e579535fbd)"><g clip-path="url(#5013a14611)"><g clip-path="url(#8412ce151a)"><rect x="-993.5" width="1620" fill="#ffffff" height="345.599992" y="-206.799999" fill-opacity="1"/></g></g></g></g></g></g><g clip-path="url(#a6599405dc)"><g clip-path="url(#03abb99520)"><g transform="matrix(1, 0, 0, 1, 788, 153)"><g clip-path="url(#abffd376ef)"><g clip-path="url(#5bbe1931a7)"><g clip-path="url(#2064934112)"><rect x="-1035.5" width="1620" fill="#ffffff" height="345.599992" y="-205.799999" fill-opacity="1"/></g></g></g></g></g></g><g clip-path="url(#3b06804861)"><g transform="matrix(1, 0, 0, 1, 826, 46)"><g clip-path="url(#4ef8d66327)"><g clip-path="url(#05b6ce22a8)"><path fill="#ffffff" d="M 0.9375 0.921875 L 9.289062 0.921875 L 9.289062 39.804688 L 0.9375 39.804688 Z M 0.9375 0.921875 " fill-opacity="1" fill-rule="nonzero"/></g></g></g></g><g clip-path="url(#1f0ae32db9)"><g clip-path="url(#7014f1d9c4)"><g transform="matrix(1, 0, 0, 1, 837, 154)"><g clip-path="url(#469097d484)"><g clip-path="url(#d6fb6724ea)"><g clip-path="url(#a573d133d1)"><path fill="#ffffff" d="M 0.148438 0.726562 L 34.832031 0.726562 L 34.832031 39.609375 L 0.148438 39.609375 Z M 0.148438 0.726562 " fill-opacity="1" fill-rule="nonzero"/></g></g></g></g></g></g><g clip-path="url(#27a5f508ba)"><g clip-path="url(#b234ef0d05)"><g transform="matrix(1, 0, 0, 1, 846, 46)"><g clip-path="url(#695cde0717)"><g clip-path="url(#0fa66c4d83)"><g clip-path="url(#f83b77513b)"><path fill="#ffffff" d="M 0.296875 0.921875 L 30.136719 0.921875 L 30.136719 39.851562 L 0.296875 39.851562 Z M 0.296875 0.921875 " fill-opacity="1" fill-rule="nonzero"/></g></g></g></g></g></g><g clip-path="url(#91e4c5c0d9)"><g clip-path="url(#a851b989be)"><g transform="matrix(1, 0, 0, 1, 884, 46)"><g clip-path="url(#058336fec5)"><g clip-path="url(#2dd1a9d036)"><g clip-path="url(#3a95643151)"><path fill="#ffffff" d="M 0.859375 0.921875 L 35.171875 0.921875 L 35.171875 39.785156 L 0.859375 39.785156 Z M 0.859375 0.921875 " fill-opacity="1" fill-rule="nonzero"/></g></g></g></g></g></g><g clip-path="url(#4e61bfd54d)"><g clip-path="url(#bd2e6388bf)"><g transform="matrix(1, 0, 0, 1, 803, 100)"><g clip-path="url(#c90544a6f3)"><g clip-path="url(#c160a74109)"><g clip-path="url(#79a1db03d1)"><rect x="-1050.5" width="1620" fill="#ffffff" height="345.599992" y="-152.799999" fill-opacity="1"/></g></g></g></g></g></g><g clip-path="url(#938f18dc6b)"><g clip-path="url(#7ba58562cb)"><g transform="matrix(1, 0, 0, 1, 843, 99)"><g clip-path="url(#91c94d838c)"><g clip-path="url(#e882ab7ef7)"><g clip-path="url(#48cc1112fc)"><rect x="-1090.5" width="1620" fill="#ffffff" height="345.599992" y="-151.799999" fill-opacity="1"/></g></g></g></g></g></g><g clip-path="url(#44d64a490e)"><g clip-path="url(#b2fbab1c23)"><g transform="matrix(1, 0, 0, 1, 888, 100)"><g clip-path="url(#eae0cade03)"><g clip-path="url(#fee5df7af1)"><g clip-path="url(#25bd486d29)"><rect x="-1135.5" width="1620" fill="#ffffff" height="345.599992" y="-152.799999" fill-opacity="1"/></g></g></g></g></g></g><g clip-path="url(#545f4a3bb2)"><g clip-path="url(#f921704ef6)"><g transform="matrix(1, 0, 0, 1, 904, 100)"><g clip-path="url(#6335f7d712)"><g clip-path="url(#ebdc54fa1e)"><g clip-path="url(#f461ee9276)"><rect x="-1151.5" width="1620" fill="#ffffff" height="345.599992" y="-152.799999" fill-opacity="1"/></g></g></g></g></g></g><g clip-path="url(#3bd0f568eb)"><g clip-path="url(#99c2ab3c11)"><g transform="matrix(1, 0, 0, 1, 937, 100)"><g clip-path="url(#d0c3a42409)"><g clip-path="url(#e5e7fbf36c)"><g clip-path="url(#bb0503a96e)"><rect x="-1184.5" width="1620" fill="#ffffff" height="345.599992" y="-152.799999" fill-opacity="1"/></g></g></g></g></g></g><g clip-path="url(#978bbb31b9)"><g clip-path="url(#6a1d96fb90)"><g transform="matrix(1, 0, 0, 1, 880, 142)"><g clip-path="url(#3f97c5eb37)"><g clip-path="url(#789d59d209)"><g clip-path="url(#5f4b8b5499)"><rect x="-1127.5" width="1620" fill="#ffffff" height="345.599992" y="-194.799999" fill-opacity="1"/></g></g></g></g></g></g><g clip-path="url(#e2a6a7413f)"><g clip-path="url(#7015464fbf)"><g transform="matrix(1, 0, 0, 1, 916, 153)"><g clip-path="url(#b0194e657e)"><g clip-path="url(#8af8974d40)"><g clip-path="url(#b61b94f73c)"><rect x="-1163.5" width="1620" fill="#ffffff" height="345.599992" y="-205.799999" fill-opacity="1"/></g></g></g></g></g></g><g clip-path="url(#bfdbb44519)"><g clip-path="url(#4cae515ab6)"><g transform="matrix(1, 0, 0, 1, 926, 46)"><g clip-path="url(#b2dcf049a9)"><g clip-path="url(#34f344cf7a)"><g clip-path="url(#59d293d231)"><rect x="-1173.5" width="1620" fill="#ffffff" height="345.599992" y="-98.799999" fill-opacity="1"/></g></g></g></g></g></g><g clip-path="url(#4d7f18597d)"><g clip-path="url(#f7e46ceb0e)"><g transform="matrix(1, 0, 0, 1, 964, 45)"><g clip-path="url(#1fe84516ba)"><g clip-path="url(#27db5c44d4)"><g clip-path="url(#d61032ca23)"><rect x="-1211.5" width="1620" fill="#ffffff" height="345.599992" y="-97.799999" fill-opacity="1"/></g></g></g></g></g></g><g clip-path="url(#f517bb8ac2)"><g clip-path="url(#1184549f1b)"><g transform="matrix(1, 0, 0, 1, 982, 100)"><g clip-path="url(#4a0cc3773f)"><g clip-path="url(#281b1d279b)"><g clip-path="url(#1478ab32f3)"><path fill="#ffffff" d="M 0.730469 0.824219 L 34.984375 0.824219 L 34.984375 39.761719 L 0.730469 39.761719 Z M 0.730469 0.824219 " fill-opacity="1" fill-rule="nonzero"/></g></g></g></g></g></g><g clip-path="url(#d90a97811f)"><g transform="matrix(1, 0, 0, 1, 1025, 100)"><g clip-path="url(#865f7b2b5f)"><g clip-path="url(#e00f455b3b)"><path fill="#ffffff" d="M 0.921875 0.824219 L 9.273438 0.824219 L 9.273438 39.710938 L 0.921875 39.710938 Z M 0.921875 0.824219 " fill-opacity="1" fill-rule="nonzero"/></g></g></g></g><g clip-path="url(#6282d786be)"><g clip-path="url(#4c528aec3c)"><g transform="matrix(1, 0, 0, 1, 1043, 99)"><g clip-path="url(#170431477b)"><g clip-path="url(#cbe17754b1)"><g clip-path="url(#37daeef24d)"><path fill="#ffffff" d="M 0.207031 0.8125 L 39.675781 0.8125 L 39.675781 41.207031 L 0.207031 41.207031 Z M 0.207031 0.8125 " fill-opacity="1" fill-rule="nonzero"/></g></g></g></g></g></g></svg>