<svg xmlns="http://www.w3.org/2000/svg" xmlns:xlink="http://www.w3.org/1999/xlink" width="2000" zoomAndPan="magnify" viewBox="0 0 1500 749.999995" height="1000" preserveAspectRatio="xMidYMid meet" version="1.0"><defs><g/><clipPath id="280683cd02"><path d="M 0.71875 44 L 868 44 L 868 316 L 0.71875 316 Z M 0.71875 44 " clip-rule="nonzero"/></clipPath><clipPath id="70c3f9a1ec"><rect x="0" width="868" y="0" height="272"/></clipPath><clipPath id="c418c7840d"><path d="M 963 0.601562 L 1438.558594 0.601562 L 1438.558594 274 L 963 274 Z M 963 0.601562 " clip-rule="nonzero"/></clipPath><clipPath id="1078788264"><rect x="0" width="476" y="0" height="274"/></clipPath><clipPath id="64d7252e51"><rect x="0" width="464" y="0" height="79"/></clipPath><clipPath id="950de6a01f"><path d="M 895 38 L 935 38 L 935 320.519531 L 895 320.519531 Z M 895 38 " clip-rule="nonzero"/></clipPath><clipPath id="d251b6a67f"><rect x="0" width="1439" y="0" height="321"/></clipPath></defs><g transform="matrix(1, 0, 0, 1, 30, 201)"><g clip-path="url(#d251b6a67f)"><g clip-path="url(#280683cd02)"><g transform="matrix(1, 0, 0, 1, -0.000000000000003553, 44)"><g clip-path="url(#70c3f9a1ec)"><g fill="#ffffff" fill-opacity="1"><g transform="translate(0.773771, 115.337339)"><g><path d="M 49.28125 1.421875 C 40.863281 1.421875 33.253906 -0.40625 26.453125 -4.0625 C 19.660156 -7.71875 14.316406 -12.785156 10.421875 -19.265625 C 6.535156 -25.753906 4.59375 -33.085938 4.59375 -41.265625 C 4.59375 -49.429688 6.535156 -56.753906 10.421875 -63.234375 C 14.316406 -69.722656 19.660156 -74.796875 26.453125 -78.453125 C 33.253906 -82.109375 40.898438 -83.9375 49.390625 -83.9375 C 56.546875 -83.9375 63.007812 -82.675781 68.78125 -80.15625 C 74.5625 -77.644531 79.414062 -74.03125 83.34375 -69.3125 L 71.09375 -58 C 65.507812 -64.445312 58.59375 -67.671875 50.34375 -67.671875 C 45.226562 -67.671875 40.664062 -66.550781 36.65625 -64.3125 C 32.65625 -62.070312 29.535156 -58.945312 27.296875 -54.9375 C 25.054688 -50.925781 23.9375 -46.367188 23.9375 -41.265625 C 23.9375 -36.148438 25.054688 -31.585938 27.296875 -27.578125 C 29.535156 -23.578125 32.65625 -20.457031 36.65625 -18.21875 C 40.664062 -15.976562 45.226562 -14.859375 50.34375 -14.859375 C 58.59375 -14.859375 65.507812 -18.117188 71.09375 -24.640625 L 83.34375 -13.328125 C 79.414062 -8.523438 74.539062 -4.863281 68.71875 -2.34375 C 62.90625 0.164062 56.425781 1.421875 49.28125 1.421875 Z M 49.28125 1.421875 "/></g></g></g><g fill="#ffffff" fill-opacity="1"><g transform="translate(87.177502, 115.337339)"><g><path d="M 73.6875 -15.328125 L 73.6875 0 L 9.78125 0 L 9.78125 -82.515625 L 72.15625 -82.515625 L 72.15625 -67.203125 L 28.765625 -67.203125 L 28.765625 -49.28125 L 67.078125 -49.28125 L 67.078125 -34.421875 L 28.765625 -34.421875 L 28.765625 -15.328125 Z M 73.6875 -15.328125 "/></g></g></g><g fill="#ffffff" fill-opacity="1"><g transform="translate(166.272871, 115.337339)"><g><path d="M 85.46875 -82.515625 L 85.46875 0 L 69.796875 0 L 28.640625 -50.109375 L 28.640625 0 L 9.78125 0 L 9.78125 -82.515625 L 25.578125 -82.515625 L 66.609375 -32.421875 L 66.609375 -82.515625 Z M 85.46875 -82.515625 "/></g></g></g><g fill="#ffffff" fill-opacity="1"><g transform="translate(261.517372, 115.337339)"><g><path d="M 26.875 -66.96875 L 0.46875 -66.96875 L 0.46875 -82.515625 L 72.390625 -82.515625 L 72.390625 -66.96875 L 45.984375 -66.96875 L 45.984375 0 L 26.875 0 Z M 26.875 -66.96875 "/></g></g></g><g fill="#ffffff" fill-opacity="1"><g transform="translate(334.36525, 115.337339)"><g><path d="M 62.359375 0 L 46.453125 -22.984375 L 28.890625 -22.984375 L 28.890625 0 L 9.78125 0 L 9.78125 -82.515625 L 45.5 -82.515625 C 52.8125 -82.515625 59.160156 -81.296875 64.546875 -78.859375 C 69.929688 -76.429688 74.078125 -72.976562 76.984375 -68.5 C 79.890625 -64.019531 81.34375 -58.710938 81.34375 -52.578125 C 81.34375 -46.453125 79.867188 -41.164062 76.921875 -36.71875 C 73.972656 -32.28125 69.789062 -28.882812 64.375 -26.53125 L 82.875 0 Z M 62.015625 -52.578125 C 62.015625 -57.210938 60.519531 -60.769531 57.53125 -63.25 C 54.539062 -65.726562 50.175781 -66.96875 44.4375 -66.96875 L 28.890625 -66.96875 L 28.890625 -38.203125 L 44.4375 -38.203125 C 50.175781 -38.203125 54.539062 -39.457031 57.53125 -41.96875 C 60.519531 -44.476562 62.015625 -48.015625 62.015625 -52.578125 Z M 62.015625 -52.578125 "/></g></g></g><g fill="#ffffff" fill-opacity="1"><g transform="translate(421.00475, 115.337339)"><g><path d="M 49.75 1.421875 C 41.1875 1.421875 33.460938 -0.425781 26.578125 -4.125 C 19.703125 -7.820312 14.316406 -12.910156 10.421875 -19.390625 C 6.535156 -25.878906 4.59375 -33.171875 4.59375 -41.265625 C 4.59375 -49.359375 6.535156 -56.644531 10.421875 -63.125 C 14.316406 -69.613281 19.703125 -74.703125 26.578125 -78.390625 C 33.460938 -82.085938 41.1875 -83.9375 49.75 -83.9375 C 58.3125 -83.9375 66.007812 -82.085938 72.84375 -78.390625 C 79.6875 -74.703125 85.070312 -69.613281 89 -63.125 C 92.9375 -56.644531 94.90625 -49.359375 94.90625 -41.265625 C 94.90625 -33.171875 92.9375 -25.878906 89 -19.390625 C 85.070312 -12.910156 79.6875 -7.820312 72.84375 -4.125 C 66.007812 -0.425781 58.3125 1.421875 49.75 1.421875 Z M 49.75 -14.859375 C 54.625 -14.859375 59.023438 -15.976562 62.953125 -18.21875 C 66.878906 -20.457031 69.960938 -23.578125 72.203125 -27.578125 C 74.441406 -31.585938 75.5625 -36.148438 75.5625 -41.265625 C 75.5625 -46.367188 74.441406 -50.925781 72.203125 -54.9375 C 69.960938 -58.945312 66.878906 -62.070312 62.953125 -64.3125 C 59.023438 -66.550781 54.625 -67.671875 49.75 -67.671875 C 44.875 -67.671875 40.472656 -66.550781 36.546875 -64.3125 C 32.617188 -62.070312 29.535156 -58.945312 27.296875 -54.9375 C 25.054688 -50.925781 23.9375 -46.367188 23.9375 -41.265625 C 23.9375 -36.148438 25.054688 -31.585938 27.296875 -27.578125 C 29.535156 -23.578125 32.617188 -20.457031 36.546875 -18.21875 C 40.472656 -15.976562 44.875 -14.859375 49.75 -14.859375 Z M 49.75 -14.859375 "/></g></g></g><g fill="#ffffff" fill-opacity="1"><g transform="translate(520.492822, 115.337339)"><g/></g></g><g fill="#ffffff" fill-opacity="1"><g transform="translate(553.851957, 115.337339)"><g><path d="M 9.78125 -82.515625 L 47.28125 -82.515625 C 56.238281 -82.515625 64.15625 -80.804688 71.03125 -77.390625 C 77.90625 -73.972656 83.25 -69.160156 87.0625 -62.953125 C 90.875 -56.742188 92.78125 -49.515625 92.78125 -41.265625 C 92.78125 -33.015625 90.875 -25.78125 87.0625 -19.5625 C 83.25 -13.351562 77.90625 -8.539062 71.03125 -5.125 C 64.15625 -1.707031 56.238281 0 47.28125 0 L 9.78125 0 Z M 46.328125 -15.671875 C 54.578125 -15.671875 61.160156 -17.96875 66.078125 -22.5625 C 70.992188 -27.164062 73.453125 -33.398438 73.453125 -41.265625 C 73.453125 -49.117188 70.992188 -55.34375 66.078125 -59.9375 C 61.160156 -64.539062 54.578125 -66.84375 46.328125 -66.84375 L 28.890625 -66.84375 L 28.890625 -15.671875 Z M 46.328125 -15.671875 "/></g></g></g><g fill="#ffffff" fill-opacity="1"><g transform="translate(651.218237, 115.337339)"><g><path d="M 73.6875 -15.328125 L 73.6875 0 L 9.78125 0 L 9.78125 -82.515625 L 72.15625 -82.515625 L 72.15625 -67.203125 L 28.765625 -67.203125 L 28.765625 -49.28125 L 67.078125 -49.28125 L 67.078125 -34.421875 L 28.765625 -34.421875 L 28.765625 -15.328125 Z M 73.6875 -15.328125 "/></g></g></g><g fill="#ffffff" fill-opacity="1"><g transform="translate(0.773771, 241.348898)"><g><path d="M 73.6875 -15.328125 L 73.6875 0 L 9.78125 0 L 9.78125 -82.515625 L 72.15625 -82.515625 L 72.15625 -67.203125 L 28.765625 -67.203125 L 28.765625 -49.28125 L 67.078125 -49.28125 L 67.078125 -34.421875 L 28.765625 -34.421875 L 28.765625 -15.328125 Z M 73.6875 -15.328125 "/></g></g></g><g fill="#ffffff" fill-opacity="1"><g transform="translate(79.86914, 241.348898)"><g><path d="M 36.90625 1.421875 C 30.375 1.421875 24.0625 0.535156 17.96875 -1.234375 C 11.882812 -3.003906 6.992188 -5.304688 3.296875 -8.140625 L 9.78125 -22.515625 C 13.320312 -19.921875 17.523438 -17.835938 22.390625 -16.265625 C 27.265625 -14.691406 32.140625 -13.90625 37.015625 -13.90625 C 42.441406 -13.90625 46.453125 -14.710938 49.046875 -16.328125 C 51.640625 -17.941406 52.9375 -20.082031 52.9375 -22.75 C 52.9375 -24.71875 52.164062 -26.347656 50.625 -27.640625 C 49.09375 -28.941406 47.128906 -29.984375 44.734375 -30.765625 C 42.335938 -31.554688 39.097656 -32.421875 35.015625 -33.359375 C 28.722656 -34.859375 23.570312 -36.351562 19.5625 -37.84375 C 15.5625 -39.332031 12.125 -41.726562 9.25 -45.03125 C 6.382812 -48.332031 4.953125 -52.734375 4.953125 -58.234375 C 4.953125 -63.023438 6.25 -67.363281 8.84375 -71.25 C 11.4375 -75.144531 15.34375 -78.234375 20.5625 -80.515625 C 25.789062 -82.796875 32.179688 -83.9375 39.734375 -83.9375 C 44.992188 -83.9375 50.140625 -83.304688 55.171875 -82.046875 C 60.203125 -80.796875 64.601562 -78.988281 68.375 -76.625 L 62.484375 -62.125 C 54.859375 -66.445312 47.234375 -68.609375 39.609375 -68.609375 C 34.265625 -68.609375 30.316406 -67.742188 27.765625 -66.015625 C 25.210938 -64.285156 23.9375 -62.007812 23.9375 -59.1875 C 23.9375 -56.351562 25.410156 -54.25 28.359375 -52.875 C 31.304688 -51.5 35.800781 -50.144531 41.84375 -48.8125 C 48.132812 -47.3125 53.285156 -45.816406 57.296875 -44.328125 C 61.304688 -42.835938 64.742188 -40.476562 67.609375 -37.25 C 70.472656 -34.03125 71.90625 -29.671875 71.90625 -24.171875 C 71.90625 -19.453125 70.585938 -15.144531 67.953125 -11.25 C 65.328125 -7.363281 61.378906 -4.28125 56.109375 -2 C 50.847656 0.28125 44.445312 1.421875 36.90625 1.421875 Z M 36.90625 1.421875 "/></g></g></g><g fill="#ffffff" fill-opacity="1"><g transform="translate(153.895696, 241.348898)"><g><path d="M 26.875 -66.96875 L 0.46875 -66.96875 L 0.46875 -82.515625 L 72.390625 -82.515625 L 72.390625 -66.96875 L 45.984375 -66.96875 L 45.984375 0 L 26.875 0 Z M 26.875 -66.96875 "/></g></g></g><g fill="#ffffff" fill-opacity="1"><g transform="translate(225.328936, 241.348898)"><g><path d="M 46.453125 1.421875 C 34.660156 1.421875 25.484375 -1.835938 18.921875 -8.359375 C 12.359375 -14.890625 9.078125 -24.207031 9.078125 -36.3125 L 9.078125 -82.515625 L 28.171875 -82.515625 L 28.171875 -37.015625 C 28.171875 -22.242188 34.300781 -14.859375 46.5625 -14.859375 C 52.539062 -14.859375 57.097656 -16.644531 60.234375 -20.21875 C 63.378906 -23.789062 64.953125 -29.390625 64.953125 -37.015625 L 64.953125 -82.515625 L 83.8125 -82.515625 L 83.8125 -36.3125 C 83.8125 -24.207031 80.53125 -14.890625 73.96875 -8.359375 C 67.40625 -1.835938 58.234375 1.421875 46.453125 1.421875 Z M 46.453125 1.421875 "/></g></g></g><g fill="#ffffff" fill-opacity="1"><g transform="translate(318.215889, 241.348898)"><g><path d="M 9.78125 -82.515625 L 47.28125 -82.515625 C 56.238281 -82.515625 64.15625 -80.804688 71.03125 -77.390625 C 77.90625 -73.972656 83.25 -69.160156 87.0625 -62.953125 C 90.875 -56.742188 92.78125 -49.515625 92.78125 -41.265625 C 92.78125 -33.015625 90.875 -25.78125 87.0625 -19.5625 C 83.25 -13.351562 77.90625 -8.539062 71.03125 -5.125 C 64.15625 -1.707031 56.238281 0 47.28125 0 L 9.78125 0 Z M 46.328125 -15.671875 C 54.578125 -15.671875 61.160156 -17.96875 66.078125 -22.5625 C 70.992188 -27.164062 73.453125 -33.398438 73.453125 -41.265625 C 73.453125 -49.117188 70.992188 -55.34375 66.078125 -59.9375 C 61.160156 -64.539062 54.578125 -66.84375 46.328125 -66.84375 L 28.890625 -66.84375 L 28.890625 -15.671875 Z M 46.328125 -15.671875 "/></g></g></g><g fill="#ffffff" fill-opacity="1"><g transform="translate(415.582169, 241.348898)"><g><path d="M 9.78125 -82.515625 L 28.890625 -82.515625 L 28.890625 0 L 9.78125 0 Z M 9.78125 -82.515625 "/></g></g></g><g fill="#ffffff" fill-opacity="1"><g transform="translate(454.245784, 241.348898)"><g><path d="M 64.125 -17.6875 L 25.8125 -17.6875 L 18.515625 0 L -1.0625 0 L 35.71875 -82.515625 L 54.578125 -82.515625 L 91.484375 0 L 71.4375 0 Z M 58.125 -32.1875 L 45.03125 -63.78125 L 31.953125 -32.1875 Z M 58.125 -32.1875 "/></g></g></g><g fill="#ffffff" fill-opacity="1"><g transform="translate(544.539458, 241.348898)"><g><path d="M 85.46875 -82.515625 L 85.46875 0 L 69.796875 0 L 28.640625 -50.109375 L 28.640625 0 L 9.78125 0 L 9.78125 -82.515625 L 25.578125 -82.515625 L 66.609375 -32.421875 L 66.609375 -82.515625 Z M 85.46875 -82.515625 "/></g></g></g><g fill="#ffffff" fill-opacity="1"><g transform="translate(639.783946, 241.348898)"><g><path d="M 26.875 -66.96875 L 0.46875 -66.96875 L 0.46875 -82.515625 L 72.390625 -82.515625 L 72.390625 -66.96875 L 45.984375 -66.96875 L 45.984375 0 L 26.875 0 Z M 26.875 -66.96875 "/></g></g></g><g fill="#ffffff" fill-opacity="1"><g transform="translate(712.631798, 241.348898)"><g><path d="M 73.6875 -15.328125 L 73.6875 0 L 9.78125 0 L 9.78125 -82.515625 L 72.15625 -82.515625 L 72.15625 -67.203125 L 28.765625 -67.203125 L 28.765625 -49.28125 L 67.078125 -49.28125 L 67.078125 -34.421875 L 28.765625 -34.421875 L 28.765625 -15.328125 Z M 73.6875 -15.328125 "/></g></g></g><g fill="#ffffff" fill-opacity="1"><g transform="translate(791.727179, 241.348898)"><g><path d="M 36.90625 1.421875 C 30.375 1.421875 24.0625 0.535156 17.96875 -1.234375 C 11.882812 -3.003906 6.992188 -5.304688 3.296875 -8.140625 L 9.78125 -22.515625 C 13.320312 -19.921875 17.523438 -17.835938 22.390625 -16.265625 C 27.265625 -14.691406 32.140625 -13.90625 37.015625 -13.90625 C 42.441406 -13.90625 46.453125 -14.710938 49.046875 -16.328125 C 51.640625 -17.941406 52.9375 -20.082031 52.9375 -22.75 C 52.9375 -24.71875 52.164062 -26.347656 50.625 -27.640625 C 49.09375 -28.941406 47.128906 -29.984375 44.734375 -30.765625 C 42.335938 -31.554688 39.097656 -32.421875 35.015625 -33.359375 C 28.722656 -34.859375 23.570312 -36.351562 19.5625 -37.84375 C 15.5625 -39.332031 12.125 -41.726562 9.25 -45.03125 C 6.382812 -48.332031 4.953125 -52.734375 4.953125 -58.234375 C 4.953125 -63.023438 6.25 -67.363281 8.84375 -71.25 C 11.4375 -75.144531 15.34375 -78.234375 20.5625 -80.515625 C 25.789062 -82.796875 32.179688 -83.9375 39.734375 -83.9375 C 44.992188 -83.9375 50.140625 -83.304688 55.171875 -82.046875 C 60.203125 -80.796875 64.601562 -78.988281 68.375 -76.625 L 62.484375 -62.125 C 54.859375 -66.445312 47.234375 -68.609375 39.609375 -68.609375 C 34.265625 -68.609375 30.316406 -67.742188 27.765625 -66.015625 C 25.210938 -64.285156 23.9375 -62.007812 23.9375 -59.1875 C 23.9375 -56.351562 25.410156 -54.25 28.359375 -52.875 C 31.304688 -51.5 35.800781 -50.144531 41.84375 -48.8125 C 48.132812 -47.3125 53.285156 -45.816406 57.296875 -44.328125 C 61.304688 -42.835938 64.742188 -40.476562 67.609375 -37.25 C 70.472656 -34.03125 71.90625 -29.671875 71.90625 -24.171875 C 71.90625 -19.453125 70.585938 -15.144531 67.953125 -11.25 C 65.328125 -7.363281 61.378906 -4.28125 56.109375 -2 C 50.847656 0.28125 44.445312 1.421875 36.90625 1.421875 Z M 36.90625 1.421875 "/></g></g></g></g></g></g><g clip-path="url(#c418c7840d)"><g transform="matrix(1, 0, 0, 1, 963, -0.000000000000113687)"><g clip-path="url(#1078788264)"><g fill="#ffffff" fill-opacity="1"><g transform="translate(2.060777, 216.901313)"><g><path d="M 53.265625 -64.40625 C 53.265625 -54.601562 56.160156 -46.726562 61.953125 -40.78125 C 67.742188 -34.84375 75.097656 -31.875 84.015625 -31.875 C 92.785156 -31.875 99.878906 -34.804688 105.296875 -40.671875 C 110.722656 -46.535156 113.4375 -54.445312 113.4375 -64.40625 L 113.4375 -156.21875 L 154.21875 -156.21875 L 154.21875 -64.40625 C 154.21875 -50.882812 151.359375 -39.035156 145.640625 -28.859375 C 139.921875 -18.679688 131.75 -10.84375 121.125 -5.34375 C 110.5 0.144531 98.054688 2.890625 83.796875 2.890625 C 69.535156 2.890625 57.019531 0.144531 46.25 -5.34375 C 35.476562 -10.84375 27.15625 -18.679688 21.28125 -28.859375 C 15.414062 -39.035156 12.484375 -50.882812 12.484375 -64.40625 L 12.484375 -156.21875 L 53.265625 -156.21875 Z M 53.265625 -64.40625 "/></g></g></g><g fill="#ffffff" fill-opacity="1"><g transform="translate(168.96656, 216.901313)"><g><path d="M 83.796875 -156.21875 C 103.703125 -156.21875 119.148438 -151.425781 130.140625 -141.84375 C 141.140625 -132.257812 146.640625 -118.78125 146.640625 -101.40625 C 146.640625 -82.976562 141.140625 -68.675781 130.140625 -58.5 C 119.148438 -48.320312 103.703125 -43.234375 83.796875 -43.234375 L 55.9375 -43.234375 L 55.9375 0 L 15.15625 0 L 15.15625 -156.21875 Z M 81.796875 -75.765625 C 90.109375 -75.765625 96.53125 -77.84375 101.0625 -82 C 105.59375 -86.164062 107.859375 -92.1875 107.859375 -100.0625 C 107.859375 -107.644531 105.59375 -113.476562 101.0625 -117.5625 C 96.53125 -121.644531 90.109375 -123.6875 81.796875 -123.6875 L 55.9375 -123.6875 L 55.9375 -75.765625 Z M 81.796875 -75.765625 "/></g></g></g><g fill="#ffffff" fill-opacity="1"><g transform="translate(320.496509, 216.901313)"><g><path d="M 128.140625 -103.1875 C 123.085938 -109.570312 117.070312 -114.65625 110.09375 -118.4375 C 103.113281 -122.226562 96.203125 -124.125 89.359375 -124.125 C 81.492188 -124.125 74.328125 -122.15625 67.859375 -118.21875 C 61.398438 -114.289062 56.3125 -108.867188 52.59375 -101.953125 C 48.875 -95.046875 47.015625 -87.359375 47.015625 -78.890625 C 47.015625 -70.421875 48.875 -62.734375 52.59375 -55.828125 C 56.3125 -48.921875 61.398438 -43.5 67.859375 -39.5625 C 74.328125 -35.625 81.492188 -33.65625 89.359375 -33.65625 C 95.753906 -33.65625 102.441406 -35.285156 109.421875 -38.546875 C 116.398438 -41.816406 122.640625 -46.273438 128.140625 -51.921875 L 151.984375 -26.296875 C 143.515625 -17.378906 133.445312 -10.285156 121.78125 -5.015625 C 110.125 0.253906 98.578125 2.890625 87.140625 2.890625 C 71.679688 2.890625 57.710938 -0.671875 45.234375 -7.796875 C 32.753906 -14.929688 22.945312 -24.660156 15.8125 -36.984375 C 8.6875 -49.316406 5.125 -63.140625 5.125 -78.453125 C 5.125 -93.597656 8.765625 -107.265625 16.046875 -119.453125 C 23.328125 -131.640625 33.316406 -141.222656 46.015625 -148.203125 C 58.722656 -155.179688 72.953125 -158.671875 88.703125 -158.671875 C 100.285156 -158.671875 111.722656 -156.253906 123.015625 -151.421875 C 134.304688 -146.597656 143.890625 -140.023438 151.765625 -131.703125 Z M 128.140625 -103.1875 "/></g></g></g></g></g></g><g transform="matrix(1, 0, 0, 1, 971, 231)"><g clip-path="url(#64d7252e51)"><g fill="#ffffff" fill-opacity="1"><g transform="translate(1.457705, 62.50264)"><g><path d="M 33.953125 0 L 25.28125 -12.515625 L 15.71875 -12.515625 L 15.71875 0 L 5.328125 0 L 5.328125 -44.921875 L 24.765625 -44.921875 C 28.742188 -44.921875 32.195312 -44.253906 35.125 -42.921875 C 38.0625 -41.597656 40.320312 -39.71875 41.90625 -37.28125 C 43.488281 -34.84375 44.28125 -31.957031 44.28125 -28.625 C 44.28125 -25.28125 43.476562 -22.398438 41.875 -19.984375 C 40.269531 -17.566406 37.988281 -15.71875 35.03125 -14.4375 L 45.109375 0 Z M 33.75 -28.625 C 33.75 -31.144531 32.9375 -33.078125 31.3125 -34.421875 C 29.6875 -35.773438 27.3125 -36.453125 24.1875 -36.453125 L 15.71875 -36.453125 L 15.71875 -20.796875 L 24.1875 -20.796875 C 27.3125 -20.796875 29.6875 -21.476562 31.3125 -22.84375 C 32.9375 -24.21875 33.75 -26.144531 33.75 -28.625 Z M 33.75 -28.625 "/></g></g></g><g fill="#ffffff" fill-opacity="1"><g transform="translate(48.62392, 62.50264)"><g><path d="M 5.328125 -44.921875 L 15.71875 -44.921875 L 15.71875 0 L 5.328125 0 Z M 5.328125 -44.921875 "/></g></g></g><g fill="#ffffff" fill-opacity="1"><g transform="translate(69.672242, 62.50264)"><g><path d="M 27.078125 0.765625 C 22.410156 0.765625 18.207031 -0.238281 14.46875 -2.25 C 10.726562 -4.257812 7.796875 -7.023438 5.671875 -10.546875 C 3.554688 -14.078125 2.5 -18.046875 2.5 -22.453125 C 2.5 -26.859375 3.554688 -30.828125 5.671875 -34.359375 C 7.796875 -37.890625 10.726562 -40.660156 14.46875 -42.671875 C 18.207031 -44.679688 22.410156 -45.6875 27.078125 -45.6875 C 31.742188 -45.6875 35.9375 -44.679688 39.65625 -42.671875 C 43.375 -40.660156 46.300781 -37.890625 48.4375 -34.359375 C 50.582031 -30.828125 51.65625 -26.859375 51.65625 -22.453125 C 51.65625 -18.046875 50.582031 -14.078125 48.4375 -10.546875 C 46.300781 -7.023438 43.375 -4.257812 39.65625 -2.25 C 35.9375 -0.238281 31.742188 0.765625 27.078125 0.765625 Z M 27.078125 -8.078125 C 29.734375 -8.078125 32.128906 -8.6875 34.265625 -9.90625 C 36.398438 -11.132812 38.078125 -12.835938 39.296875 -15.015625 C 40.523438 -17.191406 41.140625 -19.671875 41.140625 -22.453125 C 41.140625 -25.234375 40.523438 -27.710938 39.296875 -29.890625 C 38.078125 -32.078125 36.398438 -33.78125 34.265625 -35 C 32.128906 -36.21875 29.734375 -36.828125 27.078125 -36.828125 C 24.429688 -36.828125 22.035156 -36.21875 19.890625 -35 C 17.753906 -33.78125 16.078125 -32.078125 14.859375 -29.890625 C 13.640625 -27.710938 13.03125 -25.234375 13.03125 -22.453125 C 13.03125 -19.671875 13.640625 -17.191406 14.859375 -15.015625 C 16.078125 -12.835938 17.753906 -11.132812 19.890625 -9.90625 C 22.035156 -8.6875 24.429688 -8.078125 27.078125 -8.078125 Z M 27.078125 -8.078125 "/></g></g></g><g fill="#ffffff" fill-opacity="1"><g transform="translate(123.833188, 62.50264)"><g/></g></g><g fill="#ffffff" fill-opacity="1"><g transform="translate(141.993783, 62.50264)"><g><path d="M 14.625 -36.453125 L 0.25 -36.453125 L 0.25 -44.921875 L 39.40625 -44.921875 L 39.40625 -36.453125 L 25.03125 -36.453125 L 25.03125 0 L 14.625 0 Z M 14.625 -36.453125 "/></g></g></g><g fill="#ffffff" fill-opacity="1"><g transform="translate(181.651912, 62.50264)"><g><path d="M 40.109375 -8.34375 L 40.109375 0 L 5.328125 0 L 5.328125 -44.921875 L 39.265625 -44.921875 L 39.265625 -36.578125 L 15.65625 -36.578125 L 15.65625 -26.828125 L 36.515625 -26.828125 L 36.515625 -18.734375 L 15.65625 -18.734375 L 15.65625 -8.34375 Z M 40.109375 -8.34375 "/></g></g></g><g fill="#ffffff" fill-opacity="1"><g transform="translate(224.71115, 62.50264)"><g><path d="M 33.953125 0 L 25.28125 -12.515625 L 15.71875 -12.515625 L 15.71875 0 L 5.328125 0 L 5.328125 -44.921875 L 24.765625 -44.921875 C 28.742188 -44.921875 32.195312 -44.253906 35.125 -42.921875 C 38.0625 -41.597656 40.320312 -39.71875 41.90625 -37.28125 C 43.488281 -34.84375 44.28125 -31.957031 44.28125 -28.625 C 44.28125 -25.28125 43.476562 -22.398438 41.875 -19.984375 C 40.269531 -17.566406 37.988281 -15.71875 35.03125 -14.4375 L 45.109375 0 Z M 33.75 -28.625 C 33.75 -31.144531 32.9375 -33.078125 31.3125 -34.421875 C 29.6875 -35.773438 27.3125 -36.453125 24.1875 -36.453125 L 15.71875 -36.453125 L 15.71875 -20.796875 L 24.1875 -20.796875 C 27.3125 -20.796875 29.6875 -21.476562 31.3125 -22.84375 C 32.9375 -24.21875 33.75 -26.144531 33.75 -28.625 Z M 33.75 -28.625 "/></g></g></g><g fill="#ffffff" fill-opacity="1"><g transform="translate(271.877351, 62.50264)"><g><path d="M 26.828125 0.765625 C 22.242188 0.765625 18.101562 -0.226562 14.40625 -2.21875 C 10.707031 -4.207031 7.796875 -6.960938 5.671875 -10.484375 C 3.554688 -14.015625 2.5 -18.003906 2.5 -22.453125 C 2.5 -26.910156 3.554688 -30.898438 5.671875 -34.421875 C 7.796875 -37.953125 10.707031 -40.710938 14.40625 -42.703125 C 18.101562 -44.691406 22.265625 -45.6875 26.890625 -45.6875 C 30.785156 -45.6875 34.300781 -45 37.4375 -43.625 C 40.582031 -42.257812 43.226562 -40.296875 45.375 -37.734375 L 38.703125 -31.578125 C 35.660156 -35.078125 31.894531 -36.828125 27.40625 -36.828125 C 24.625 -36.828125 22.140625 -36.21875 19.953125 -35 C 17.773438 -33.78125 16.078125 -32.078125 14.859375 -29.890625 C 13.640625 -27.710938 13.03125 -25.234375 13.03125 -22.453125 C 13.03125 -19.671875 13.640625 -17.191406 14.859375 -15.015625 C 16.078125 -12.835938 17.773438 -11.132812 19.953125 -9.90625 C 22.140625 -8.6875 24.625 -8.078125 27.40625 -8.078125 C 31.894531 -8.078125 35.660156 -9.851562 38.703125 -13.40625 L 45.375 -7.25 C 43.226562 -4.644531 40.570312 -2.65625 37.40625 -1.28125 C 34.238281 0.0820312 30.710938 0.765625 26.828125 0.765625 Z M 26.828125 0.765625 "/></g></g></g><g fill="#ffffff" fill-opacity="1"><g transform="translate(318.915237, 62.50264)"><g><path d="M 40.109375 -8.34375 L 40.109375 0 L 5.328125 0 L 5.328125 -44.921875 L 39.265625 -44.921875 L 39.265625 -36.578125 L 15.65625 -36.578125 L 15.65625 -26.828125 L 36.515625 -26.828125 L 36.515625 -18.734375 L 15.65625 -18.734375 L 15.65625 -8.34375 Z M 40.109375 -8.34375 "/></g></g></g><g fill="#ffffff" fill-opacity="1"><g transform="translate(361.974462, 62.50264)"><g><path d="M 33.953125 0 L 25.28125 -12.515625 L 15.71875 -12.515625 L 15.71875 0 L 5.328125 0 L 5.328125 -44.921875 L 24.765625 -44.921875 C 28.742188 -44.921875 32.195312 -44.253906 35.125 -42.921875 C 38.0625 -41.597656 40.320312 -39.71875 41.90625 -37.28125 C 43.488281 -34.84375 44.28125 -31.957031 44.28125 -28.625 C 44.28125 -25.28125 43.476562 -22.398438 41.875 -19.984375 C 40.269531 -17.566406 37.988281 -15.71875 35.03125 -14.4375 L 45.109375 0 Z M 33.75 -28.625 C 33.75 -31.144531 32.9375 -33.078125 31.3125 -34.421875 C 29.6875 -35.773438 27.3125 -36.453125 24.1875 -36.453125 L 15.71875 -36.453125 L 15.71875 -20.796875 L 24.1875 -20.796875 C 27.3125 -20.796875 29.6875 -21.476562 31.3125 -22.84375 C 32.9375 -24.21875 33.75 -26.144531 33.75 -28.625 Z M 33.75 -28.625 "/></g></g></g><g fill="#ffffff" fill-opacity="1"><g transform="translate(409.140664, 62.50264)"><g><path d="M 27.078125 0.765625 C 22.410156 0.765625 18.207031 -0.238281 14.46875 -2.25 C 10.726562 -4.257812 7.796875 -7.023438 5.671875 -10.546875 C 3.554688 -14.078125 2.5 -18.046875 2.5 -22.453125 C 2.5 -26.859375 3.554688 -30.828125 5.671875 -34.359375 C 7.796875 -37.890625 10.726562 -40.660156 14.46875 -42.671875 C 18.207031 -44.679688 22.410156 -45.6875 27.078125 -45.6875 C 31.742188 -45.6875 35.9375 -44.679688 39.65625 -42.671875 C 43.375 -40.660156 46.300781 -37.890625 48.4375 -34.359375 C 50.582031 -30.828125 51.65625 -26.859375 51.65625 -22.453125 C 51.65625 -18.046875 50.582031 -14.078125 48.4375 -10.546875 C 46.300781 -7.023438 43.375 -4.257812 39.65625 -2.25 C 35.9375 -0.238281 31.742188 0.765625 27.078125 0.765625 Z M 27.078125 -8.078125 C 29.734375 -8.078125 32.128906 -8.6875 34.265625 -9.90625 C 36.398438 -11.132812 38.078125 -12.835938 39.296875 -15.015625 C 40.523438 -17.191406 41.140625 -19.671875 41.140625 -22.453125 C 41.140625 -25.234375 40.523438 -27.710938 39.296875 -29.890625 C 38.078125 -32.078125 36.398438 -33.78125 34.265625 -35 C 32.128906 -36.21875 29.734375 -36.828125 27.078125 -36.828125 C 24.429688 -36.828125 22.035156 -36.21875 19.890625 -35 C 17.753906 -33.78125 16.078125 -32.078125 14.859375 -29.890625 C 13.640625 -27.710938 13.03125 -25.234375 13.03125 -22.453125 C 13.03125 -19.671875 13.640625 -17.191406 14.859375 -15.015625 C 16.078125 -12.835938 17.753906 -11.132812 19.890625 -9.90625 C 22.035156 -8.6875 24.429688 -8.078125 27.078125 -8.078125 Z M 27.078125 -8.078125 "/></g></g></g></g></g><g clip-path="url(#950de6a01f)"><path stroke-linecap="butt" transform="matrix(0, -1.513168, 1.513168, 0, 895.474472, 300.624312)" fill="none" stroke-linejoin="miter" d="M -0.000454441 12.999259 L 160.001224 12.999259 " stroke="#ffffff" stroke-width="26" stroke-opacity="1" stroke-miterlimit="4"/></g></g></g></svg>